solid Door Handle
facet normal 0.0 -1.0 0.0
  outer loop
    vertex 0.11999999999999998 0.0 0.019999999999999997
    vertex 0.0 0.0 0.0
    vertex 0.11999999999999998 0.0 0.0
  endloop
endfacet
facet normal 0.0 -1.0 0.0
  outer loop
    vertex 0.0 0.0 0.0
    vertex 0.11999999999999998 0.0 0.019999999999999997
    vertex 0.0 0.0 0.019999999999999997
  endloop
endfacet
facet normal 0.0 1.0 0.0
  outer loop
    vertex 0.0 0.019999999999999997 0.019999999999999997
    vertex 0.11999999999999998 0.019999999999999997 0.0
    vertex 0.0 0.019999999999999997 0.0
  endloop
endfacet
facet normal 0.0 1.0 0.0
  outer loop
    vertex 0.11999999999999998 0.019999999999999997 0.0
    vertex 0.0 0.019999999999999997 0.019999999999999997
    vertex 0.11999999999999998 0.019999999999999997 0.019999999999999997
  endloop
endfacet
facet normal -0.0 -0.0 -1.0
  outer loop
    vertex 0.11999999999999998 0.019999999999999997 0.0
    vertex 0.0 0.0 0.0
    vertex 0.0 0.019999999999999997 0.0
  endloop
endfacet
facet normal -0.0 -0.0 -1.0
  outer loop
    vertex 0.0 0.0 0.0
    vertex 0.11999999999999998 0.019999999999999997 0.0
    vertex 0.11999999999999998 0.0 0.0
  endloop
endfacet
facet normal -1.0 0.0 0.0
  outer loop
    vertex 0.0 0.019999999999999997 0.019999999999999997
    vertex 0.0 0.0 0.0
    vertex 0.0 0.0 0.019999999999999997
  endloop
endfacet
facet normal -1.0 0.0 0.0
  outer loop
    vertex 0.0 0.0 0.0
    vertex 0.0 0.019999999999999997 0.019999999999999997
    vertex 0.0 0.019999999999999997 0.0
  endloop
endfacet
facet normal -0.0 0.0 1.0
  outer loop
    vertex 0.11999999999999998 0.0 0.019999999999999997
    vertex 0.0 0.019999999999999997 0.019999999999999997
    vertex 0.0 0.0 0.019999999999999997
  endloop
endfacet
facet normal -0.0 0.0 1.0
  outer loop
    vertex 0.0 0.019999999999999997 0.019999999999999997
    vertex 0.11999999999999998 0.0 0.019999999999999997
    vertex 0.11999999999999998 0.019999999999999997 0.019999999999999997
  endloop
endfacet
facet normal 1.0 0.0 0.0
  outer loop
    vertex 0.11999999999999998 0.019999999999999997 0.0
    vertex 0.11999999999999998 0.0 0.019999999999999997
    vertex 0.11999999999999998 0.0 0.0
  endloop
endfacet
facet normal 1.0 0.0 0.0
  outer loop
    vertex 0.11999999999999998 0.0 0.019999999999999997
    vertex 0.11999999999999998 0.019999999999999997 0.0
    vertex 0.11999999999999998 0.019999999999999997 0.019999999999999997
  endloop
endfacet
facet normal 1.0 0.0 0.0
  outer loop
    vertex 0.11999999999999998 0.11598818269590258 0.0
    vertex 0.11999999999999998 0.09598818269590259 0.019999999999999997
    vertex 0.11999999999999998 0.09598818269590259 0.0
  endloop
endfacet
facet normal 1.0 0.0 0.0
  outer loop
    vertex 0.11999999999999998 0.09598818269590259 0.019999999999999997
    vertex 0.11999999999999998 0.11598818269590258 0.0
    vertex 0.11999999999999998 0.11598818269590258 0.019999999999999997
  endloop
endfacet
facet normal -1.0 0.0 0.0
  outer loop
    vertex 0.0 0.11598818269590258 0.019999999999999997
    vertex 0.0 0.09598818269590259 0.0
    vertex 0.0 0.09598818269590259 0.019999999999999997
  endloop
endfacet
facet normal -1.0 0.0 0.0
  outer loop
    vertex 0.0 0.09598818269590259 0.0
    vertex 0.0 0.11598818269590258 0.019999999999999997
    vertex 0.0 0.11598818269590258 0.0
  endloop
endfacet
facet normal 0.0 1.0 0.0
  outer loop
    vertex 0.0 0.11598818269590258 0.019999999999999997
    vertex 0.11999999999999998 0.11598818269590258 0.0
    vertex 0.0 0.11598818269590258 0.0
  endloop
endfacet
facet normal 0.0 1.0 0.0
  outer loop
    vertex 0.11999999999999998 0.11598818269590258 0.0
    vertex 0.0 0.11598818269590258 0.019999999999999997
    vertex 0.11999999999999998 0.11598818269590258 0.019999999999999997
  endloop
endfacet
facet normal -0.0 -0.0 -1.0
  outer loop
    vertex 0.11999999999999998 0.11598818269590258 0.0
    vertex 0.0 0.09598818269590259 0.0
    vertex 0.0 0.11598818269590258 0.0
  endloop
endfacet
facet normal -0.0 -0.0 -1.0
  outer loop
    vertex 0.0 0.09598818269590259 0.0
    vertex 0.11999999999999998 0.11598818269590258 0.0
    vertex 0.11999999999999998 0.09598818269590259 0.0
  endloop
endfacet
facet normal 0.0 0.0 1.0
  outer loop
    vertex 0.11999999999999998 0.09598818269590259 0.019999999999999997
    vertex 0.0 0.11598818269590258 0.019999999999999997
    vertex 0.0 0.09598818269590259 0.019999999999999997
  endloop
endfacet
facet normal 0.0 0.0 1.0
  outer loop
    vertex 0.0 0.11598818269590258 0.019999999999999997
    vertex 0.11999999999999998 0.09598818269590259 0.019999999999999997
    vertex 0.11999999999999998 0.11598818269590258 0.019999999999999997
  endloop
endfacet
facet normal 0.0 -1.0 0.0
  outer loop
    vertex 0.11999999999999998 0.09598818269590259 0.019999999999999997
    vertex 0.0 0.09598818269590259 0.0
    vertex 0.11999999999999998 0.09598818269590259 0.0
  endloop
endfacet
facet normal 0.0 -1.0 0.0
  outer loop
    vertex 0.0 0.09598818269590259 0.0
    vertex 0.11999999999999998 0.09598818269590259 0.019999999999999997
    vertex 0.0 0.09598818269590259 0.019999999999999997
  endloop
endfacet
facet normal 0.0 -1.0 0.0
  outer loop
    vertex 0.059999999999999984 0.040652229475468135 0.039999999999999994
    vertex 0.0 0.040652229475468135 -0.019999999999999997
    vertex 0.059999999999999984 0.040652229475468135 -0.019999999999999997
  endloop
endfacet
facet normal 0.0 -1.0 0.0
  outer loop
    vertex 0.0 0.040652229475468135 -0.019999999999999997
    vertex 0.059999999999999984 0.040652229475468135 0.039999999999999994
    vertex 0.0 0.040652229475468135 0.039999999999999994
  endloop
endfacet
facet normal 0.0 0.0 1.0
  outer loop
    vertex 0.059999999999999984 0.040652229475468135 0.039999999999999994
    vertex 0.0 0.06065222947546814 0.039999999999999994
    vertex 0.0 0.040652229475468135 0.039999999999999994
  endloop
endfacet
facet normal 0.0 0.0 1.0
  outer loop
    vertex 0.0 0.06065222947546814 0.039999999999999994
    vertex 0.059999999999999984 0.040652229475468135 0.039999999999999994
    vertex 0.059999999999999984 0.06065222947546814 0.039999999999999994
  endloop
endfacet
facet normal 0.0 1.0 0.0
  outer loop
    vertex 0.0 0.06065222947546814 0.039999999999999994
    vertex 0.059999999999999984 0.06065222947546814 -0.019999999999999997
    vertex 0.0 0.06065222947546814 -0.019999999999999997
  endloop
endfacet
facet normal 0.0 1.0 0.0
  outer loop
    vertex 0.059999999999999984 0.06065222947546814 -0.019999999999999997
    vertex 0.0 0.06065222947546814 0.039999999999999994
    vertex 0.059999999999999984 0.06065222947546814 0.039999999999999994
  endloop
endfacet
facet normal -0.0 -0.0 -1.0
  outer loop
    vertex 0.059999999999999984 0.06065222947546814 -0.019999999999999997
    vertex 0.0 0.040652229475468135 -0.019999999999999997
    vertex 0.0 0.06065222947546814 -0.019999999999999997
  endloop
endfacet
facet normal -0.0 -0.0 -1.0
  outer loop
    vertex 0.0 0.040652229475468135 -0.019999999999999997
    vertex 0.059999999999999984 0.06065222947546814 -0.019999999999999997
    vertex 0.059999999999999984 0.040652229475468135 -0.019999999999999997
  endloop
endfacet
facet normal -1.0 0.0 0.0
  outer loop
    vertex 0.0 0.06065222947546814 0.039999999999999994
    vertex 0.0 0.040652229475468135 -0.019999999999999997
    vertex 0.0 0.040652229475468135 0.039999999999999994
  endloop
endfacet
facet normal -1.0 0.0 0.0
  outer loop
    vertex 0.0 0.040652229475468135 -0.019999999999999997
    vertex 0.0 0.06065222947546814 0.039999999999999994
    vertex 0.0 0.06065222947546814 -0.019999999999999997
  endloop
endfacet
facet normal 1.0 0.0 0.0
  outer loop
    vertex 0.059999999999999984 0.06065222947546814 -0.019999999999999997
    vertex 0.059999999999999984 0.040652229475468135 0.039999999999999994
    vertex 0.059999999999999984 0.040652229475468135 -0.019999999999999997
  endloop
endfacet
facet normal 1.0 0.0 0.0
  outer loop
    vertex 0.059999999999999984 0.040652229475468135 0.039999999999999994
    vertex 0.059999999999999984 0.06065222947546814 -0.019999999999999997
    vertex 0.059999999999999984 0.06065222947546814 0.039999999999999994
  endloop
endfacet
endsolid Door Handle
