solid Door
facet normal 0.0 -1.0 0.0
  outer loop
    vertex 1.0 0.0 2.0
    vertex 0.0 0.0 0.0
    vertex 1.0 0.0 0.0
  endloop
endfacet
facet normal 0.0 -1.0 0.0
  outer loop
    vertex 0.0 0.0 0.0
    vertex 1.0 0.0 2.0
    vertex 0.0 0.0 2.0
  endloop
endfacet
facet normal 1.0 -0.0 -0.0
  outer loop
    vertex 1.0 0.039999999999999994 0.0
    vertex 1.0 0.0 2.0
    vertex 1.0 0.0 0.0
  endloop
endfacet
facet normal 1.0 -0.0 -0.0
  outer loop
    vertex 1.0 0.0 2.0
    vertex 1.0 0.039999999999999994 0.0
    vertex 1.0 0.039999999999999994 2.0
  endloop
endfacet
facet normal -0.0 -0.0 1.0
  outer loop
    vertex 1.0 0.0 2.0
    vertex 0.0 0.039999999999999994 2.0
    vertex 0.0 0.0 2.0
  endloop
endfacet
facet normal -0.0 -0.0 1.0
  outer loop
    vertex 0.0 0.039999999999999994 2.0
    vertex 1.0 0.0 2.0
    vertex 1.0 0.039999999999999994 2.0
  endloop
endfacet
facet normal 0.0 0.0 -1.0
  outer loop
    vertex 1.0 0.039999999999999994 0.0
    vertex 0.0 0.03404255319148936 0.0
    vertex 0.0 0.039999999999999994 0.0
  endloop
endfacet
facet normal 0.0 0.0 -1.0
  outer loop
    vertex 0.0 0.03404255319148936 0.0
    vertex 1.0 0.039999999999999994 0.0
    vertex 0.0 0.0 0.0
  endloop
endfacet
facet normal 0.0 0.0 -1.0
  outer loop
    vertex 0.0 0.0 0.0
    vertex 1.0 0.039999999999999994 0.0
    vertex 1.0 0.0 0.0
  endloop
endfacet
facet normal -1.0 0.0 0.0
  outer loop
    vertex 0.0 0.039999999999999994 2.0
    vertex 0.0 0.0 0.0
    vertex 0.0 0.0 2.0
  endloop
endfacet
facet normal -1.0 0.0 0.0
  outer loop
    vertex 0.0 0.0 0.0
    vertex 0.0 0.039999999999999994 2.0
    vertex 0.0 0.03404255319148936 0.0
  endloop
endfacet
facet normal -1.0 0.0 0.0
  outer loop
    vertex 0.0 0.03404255319148936 0.0
    vertex 0.0 0.039999999999999994 2.0
    vertex 0.0 0.039999999999999994 0.0
  endloop
endfacet
facet normal -0.0 1.0 -0.0
  outer loop
    vertex 0.0 0.039999999999999994 2.0
    vertex 1.0 0.039999999999999994 0.0
    vertex 0.0 0.039999999999999994 0.0
  endloop
endfacet
facet normal -0.0 1.0 -0.0
  outer loop
    vertex 1.0 0.039999999999999994 0.0
    vertex 0.0 0.039999999999999994 2.0
    vertex 1.0 0.039999999999999994 2.0
  endloop
endfacet
facet normal 1.0 -0.0 -0.0
  outer loop
    vertex 1.0 0.0 0.0
    vertex 1.0 -0.039999999999999994 2.0
    vertex 1.0 -0.039999999999999994 0.0
  endloop
endfacet
facet normal 1.0 -0.0 -0.0
  outer loop
    vertex 1.0 -0.039999999999999994 2.0
    vertex 1.0 0.0 0.0
    vertex 1.0 0.0 2.0
  endloop
endfacet
facet normal 1.0 -0.0 -0.0
  outer loop
    vertex 1.0 0.07999999999999999 0.0
    vertex 1.0 0.039999999999999994 2.0
    vertex 1.0 0.039999999999999994 0.0
  endloop
endfacet
facet normal 1.0 -0.0 -0.0
  outer loop
    vertex 1.0 0.039999999999999994 2.0
    vertex 1.0 0.07999999999999999 0.0
    vertex 1.0 0.07999999999999999 2.0
  endloop
endfacet
facet normal 0.0 -1.0 0.0
  outer loop
    vertex 1.0399999999999998 0.07999999999999999 0.03999999999999999
    vertex 1.0 0.07999999999999999 0.0
    vertex 1.0399999999999998 0.07999999999999999 0.0
  endloop
endfacet
facet normal 0.0 -1.0 0.0
  outer loop
    vertex 1.0 0.07999999999999999 0.0
    vertex 1.0399999999999998 0.07999999999999999 0.03999999999999999
    vertex 1.0 0.07999999999999999 2.0
  endloop
endfacet
facet normal 0.0 -1.0 0.0
  outer loop
    vertex 1.0 0.07999999999999999 2.0
    vertex 1.0399999999999998 0.07999999999999999 0.03999999999999999
    vertex 1.0399999999999998 0.07999999999999999 2.0
  endloop
endfacet
facet normal 0.0 0.0 -1.0
  outer loop
    vertex 1.0399999999999998 0.07999999999999999 0.0
    vertex 1.0 0.039999999999999994 0.0
    vertex 1.0 0.07999999999999999 0.0
  endloop
endfacet
facet normal 0.0 0.0 -1.0
  outer loop
    vertex 1.0 0.039999999999999994 0.0
    vertex 1.0399999999999998 0.07999999999999999 0.0
    vertex 1.0 0.0 0.0
  endloop
endfacet
facet normal 0.0 0.0 -1.0
  outer loop
    vertex 1.0 0.0 0.0
    vertex 1.0399999999999998 0.07999999999999999 0.0
    vertex 1.0 -0.039999999999999994 0.0
  endloop
endfacet
facet normal 0.0 0.0 -1.0
  outer loop
    vertex 1.0 -0.039999999999999994 0.0
    vertex 1.0399999999999998 0.07999999999999999 0.0
    vertex 1.0399999999999998 -0.039999999999999994 0.0
  endloop
endfacet
facet normal 0.0 0.0 -1.0
  outer loop
    vertex 1.0399999999999998 -0.039999999999999994 0.0
    vertex 1.0399999999999998 0.07999999999999999 0.0
    vertex 1.0399999999999998 0.05999999999999999 0.0
  endloop
endfacet
facet normal 0.0 0.0 -1.0
  outer loop
    vertex 1.0399999999999998 -0.039999999999999994 0.0
    vertex 1.0399999999999998 0.05999999999999999 0.0
    vertex 1.0399999999999998 -0.019999999999999997 0.0
  endloop
endfacet
facet normal 0.0 -1.0 0.0
  outer loop
    vertex 1.0599999999999998 -0.039999999999999994 2.04
    vertex 1.0399999999999998 -0.039999999999999994 2.0
    vertex 1.0599999999999998 -0.039999999999999994 2.0
  endloop
endfacet
facet normal 0.0 -1.0 0.0
  outer loop
    vertex 1.0399999999999998 -0.039999999999999994 2.0
    vertex 1.0599999999999998 -0.039999999999999994 2.04
    vertex 1.0 -0.039999999999999994 2.0
  endloop
endfacet
facet normal 0.0 -1.0 0.0
  outer loop
    vertex 1.0 -0.039999999999999994 2.0
    vertex 1.0599999999999998 -0.039999999999999994 2.04
    vertex 0.0 -0.039999999999999994 2.0
  endloop
endfacet
facet normal 0.0 -1.0 0.0
  outer loop
    vertex 0.0 -0.039999999999999994 2.0
    vertex 1.0599999999999998 -0.039999999999999994 2.04
    vertex -0.039999999999999994 -0.039999999999999994 2.0
  endloop
endfacet
facet normal 0.0 -1.0 0.0
  outer loop
    vertex -0.039999999999999994 -0.039999999999999994 2.0
    vertex 1.0599999999999998 -0.039999999999999994 2.04
    vertex -0.039999999999999994 -0.039999999999999994 2.04
  endloop
endfacet
facet normal 0.0 -1.0 0.0
  outer loop
    vertex -0.039999999999999994 -0.039999999999999994 2.04
    vertex 1.0599999999999998 -0.039999999999999994 2.04
    vertex 1.0399999999999998 -0.039999999999999994 2.04
  endloop
endfacet
facet normal 0.0 -1.0 0.0
  outer loop
    vertex 1.0599999999999998 -0.039999999999999994 0.03999999999999999
    vertex 1.0399999999999998 -0.039999999999999994 0.0
    vertex 1.0599999999999998 -0.039999999999999994 0.0
  endloop
endfacet
facet normal 0.0 -1.0 0.0
  outer loop
    vertex 1.0399999999999998 -0.039999999999999994 0.0
    vertex 1.0599999999999998 -0.039999999999999994 0.03999999999999999
    vertex 1.0 -0.039999999999999994 0.0
  endloop
endfacet
facet normal 0.0 -1.0 0.0
  outer loop
    vertex 1.0 -0.039999999999999994 0.0
    vertex 1.0599999999999998 -0.039999999999999994 0.03999999999999999
    vertex 1.0399999999999998 -0.039999999999999994 0.04000000000000006
  endloop
endfacet
facet normal 0.0 -1.0 0.0
  outer loop
    vertex 1.0 -0.039999999999999994 0.0
    vertex 1.0399999999999998 -0.039999999999999994 0.04000000000000006
    vertex 1.0 -0.039999999999999994 2.0
  endloop
endfacet
facet normal 0.0 -1.0 0.0
  outer loop
    vertex 1.0 -0.039999999999999994 2.0
    vertex 1.0399999999999998 -0.039999999999999994 0.04000000000000006
    vertex 1.0399999999999998 -0.039999999999999994 2.0
  endloop
endfacet
facet normal 1.0 -0.0 -0.0
  outer loop
    vertex 1.0399999999999998 0.05999999999999999 0.0
    vertex 1.0399999999999998 -0.019999999999999997 0.04000000000000006
    vertex 1.0399999999999998 -0.019999999999999997 0.0
  endloop
endfacet
facet normal 1.0 -0.0 -0.0
  outer loop
    vertex 1.0399999999999998 -0.019999999999999997 0.04000000000000006
    vertex 1.0399999999999998 0.05999999999999999 0.0
    vertex 1.0399999999999998 -0.019999999999999997 2.0
  endloop
endfacet
facet normal 1.0 -0.0 -0.0
  outer loop
    vertex 1.0399999999999998 -0.019999999999999997 2.0
    vertex 1.0399999999999998 0.05999999999999999 0.0
    vertex 1.0399999999999998 0.05999999999999999 2.0
  endloop
endfacet
facet normal 1.0 -0.0 -0.0
  outer loop
    vertex 1.0399999999999998 0.05999999999999999 2.0
    vertex 1.0399999999999998 0.05999999999999999 0.0
    vertex 1.0399999999999998 0.05999999999999999 0.03999999999999999
  endloop
endfacet
facet normal 1.0 -0.0 -0.0
  outer loop
    vertex 1.0399999999999998 0.05999999999999999 2.0
    vertex 1.0399999999999998 0.05999999999999999 0.03999999999999999
    vertex 1.0399999999999998 0.07999999999999999 0.03999999999999999
  endloop
endfacet
facet normal 1.0 -0.0 -0.0
  outer loop
    vertex 1.0399999999999998 0.05999999999999999 2.0
    vertex 1.0399999999999998 0.07999999999999999 0.03999999999999999
    vertex 1.0399999999999998 0.07999999999999999 2.0
  endloop
endfacet
facet normal 1.0 -0.0 -0.0
  outer loop
    vertex 1.0399999999999998 -0.019999999999999997 0.04000000000000006
    vertex 1.0399999999999998 -0.039999999999999994 2.0
    vertex 1.0399999999999998 -0.039999999999999994 0.04000000000000006
  endloop
endfacet
facet normal 1.0 -0.0 -0.0
  outer loop
    vertex 1.0399999999999998 -0.039999999999999994 2.0
    vertex 1.0399999999999998 -0.019999999999999997 0.04000000000000006
    vertex 1.0399999999999998 -0.019999999999999997 2.0
  endloop
endfacet
facet normal -0.0 -0.0 1.0
  outer loop
    vertex 1.0 0.039999999999999994 2.0
    vertex 0.0 0.07999999999999999 2.0
    vertex 0.0 0.039999999999999994 2.0
  endloop
endfacet
facet normal -0.0 -0.0 1.0
  outer loop
    vertex 0.0 0.07999999999999999 2.0
    vertex 1.0 0.039999999999999994 2.0
    vertex 1.0 0.07999999999999999 2.0
  endloop
endfacet
facet normal -0.0 -0.0 1.0
  outer loop
    vertex 1.0 -0.039999999999999994 2.0
    vertex 0.0 0.0 2.0
    vertex 0.0 -0.039999999999999994 2.0
  endloop
endfacet
facet normal -0.0 -0.0 1.0
  outer loop
    vertex 0.0 0.0 2.0
    vertex 1.0 -0.039999999999999994 2.0
    vertex 1.0 0.0 2.0
  endloop
endfacet
facet normal -1.0 0.0 0.0
  outer loop
    vertex 0.0 0.0 2.0
    vertex 0.0 -0.039999999999999994 0.0
    vertex 0.0 -0.039999999999999994 2.0
  endloop
endfacet
facet normal -1.0 0.0 0.0
  outer loop
    vertex 0.0 -0.039999999999999994 0.0
    vertex 0.0 0.0 2.0
    vertex 0.0 0.0 0.0
  endloop
endfacet
facet normal -1.0 0.0 0.0
  outer loop
    vertex 0.0 0.07999999999999999 2.0
    vertex 0.0 0.039999999999999994 0.0
    vertex 0.0 0.039999999999999994 2.0
  endloop
endfacet
facet normal -1.0 0.0 0.0
  outer loop
    vertex 0.0 0.039999999999999994 0.0
    vertex 0.0 0.07999999999999999 2.0
    vertex 0.0 0.07999999999999999 0.0
  endloop
endfacet
facet normal 0.0 -1.0 0.0
  outer loop
    vertex 0.0 0.07999999999999999 2.0
    vertex -0.039999999999999994 0.07999999999999999 0.0
    vertex 0.0 0.07999999999999999 0.0
  endloop
endfacet
facet normal 0.0 -1.0 0.0
  outer loop
    vertex -0.039999999999999994 0.07999999999999999 0.0
    vertex 0.0 0.07999999999999999 2.0
    vertex -0.039999999999999994 0.07999999999999999 2.0
  endloop
endfacet
facet normal -0.0 -0.0 1.0
  outer loop
    vertex 0.0 -0.039999999999999994 2.0
    vertex -0.039999999999999994 0.07999999999999999 2.0
    vertex -0.039999999999999994 -0.039999999999999994 2.0
  endloop
endfacet
facet normal -0.0 -0.0 1.0
  outer loop
    vertex -0.039999999999999994 0.07999999999999999 2.0
    vertex 0.0 -0.039999999999999994 2.0
    vertex 0.0 0.07999999999999999 2.0
  endloop
endfacet
facet normal -0.0 -0.0 1.0
  outer loop
    vertex 0.0 0.07999999999999999 2.0
    vertex 0.0 -0.039999999999999994 2.0
    vertex 0.0 0.0 2.0
  endloop
endfacet
facet normal -0.0 -0.0 1.0
  outer loop
    vertex 0.0 0.07999999999999999 2.0
    vertex 0.0 0.0 2.0
    vertex 0.0 0.039999999999999994 2.0
  endloop
endfacet
facet normal 0.0 0.0 -1.0
  outer loop
    vertex 0.0 0.07999999999999999 0.0
    vertex -0.039999999999999994 -0.039999999999999994 0.0
    vertex -0.039999999999999994 0.07999999999999999 0.0
  endloop
endfacet
facet normal 0.0 0.0 -1.0
  outer loop
    vertex -0.039999999999999994 -0.039999999999999994 0.0
    vertex 0.0 0.07999999999999999 0.0
    vertex 0.0 -0.039999999999999994 0.0
  endloop
endfacet
facet normal 0.0 0.0 -1.0
  outer loop
    vertex 0.0 -0.039999999999999994 0.0
    vertex 0.0 0.07999999999999999 0.0
    vertex 0.0 0.039999999999999994 0.0
  endloop
endfacet
facet normal 0.0 0.0 -1.0
  outer loop
    vertex 0.0 -0.039999999999999994 0.0
    vertex 0.0 0.039999999999999994 0.0
    vertex 0.0 0.03404255319148936 0.0
  endloop
endfacet
facet normal 0.0 0.0 -1.0
  outer loop
    vertex 0.0 -0.039999999999999994 0.0
    vertex 0.0 0.03404255319148936 0.0
    vertex 0.0 0.0 0.0
  endloop
endfacet
facet normal 0.0 -1.0 0.0
  outer loop
    vertex 0.0 -0.039999999999999994 2.0
    vertex -0.039999999999999994 -0.039999999999999994 0.0
    vertex 0.0 -0.039999999999999994 0.0
  endloop
endfacet
facet normal 0.0 -1.0 0.0
  outer loop
    vertex -0.039999999999999994 -0.039999999999999994 0.0
    vertex 0.0 -0.039999999999999994 2.0
    vertex -0.039999999999999994 -0.039999999999999994 2.0
  endloop
endfacet
facet normal -1.0 0.0 0.0
  outer loop
    vertex -0.039999999999999994 0.07999999999999999 2.0
    vertex -0.039999999999999994 -0.039999999999999994 0.0
    vertex -0.039999999999999994 -0.039999999999999994 2.0
  endloop
endfacet
facet normal -1.0 0.0 0.0
  outer loop
    vertex -0.039999999999999994 -0.039999999999999994 0.0
    vertex -0.039999999999999994 0.07999999999999999 2.0
    vertex -0.039999999999999994 0.07999999999999999 0.0
  endloop
endfacet
facet normal -1.0 0.0 0.0
  outer loop
    vertex -0.039999999999999994 0.07999999999999999 2.04
    vertex -0.039999999999999994 -0.039999999999999994 2.0
    vertex -0.039999999999999994 -0.039999999999999994 2.04
  endloop
endfacet
facet normal -1.0 0.0 0.0
  outer loop
    vertex -0.039999999999999994 -0.039999999999999994 2.0
    vertex -0.039999999999999994 0.07999999999999999 2.04
    vertex -0.039999999999999994 0.07999999999999999 2.0
  endloop
endfacet
facet normal 1.0 -0.0 -0.0
  outer loop
    vertex 1.0399999999999998 0.05999999999999999 2.0
    vertex 1.0399999999999998 -0.019999999999999997 2.04
    vertex 1.0399999999999998 -0.019999999999999997 2.0
  endloop
endfacet
facet normal 1.0 -0.0 -0.0
  outer loop
    vertex 1.0399999999999998 -0.019999999999999997 2.04
    vertex 1.0399999999999998 0.05999999999999999 2.0
    vertex 1.0399999999999998 0.05999999999999999 2.04
  endloop
endfacet
facet normal 0.0 -1.0 0.0
  outer loop
    vertex 1.0399999999999998 0.07999999999999999 2.04
    vertex 1.0 0.07999999999999999 2.0
    vertex 1.0399999999999998 0.07999999999999999 2.0
  endloop
endfacet
facet normal 0.0 -1.0 0.0
  outer loop
    vertex 1.0 0.07999999999999999 2.0
    vertex 1.0399999999999998 0.07999999999999999 2.04
    vertex 0.0 0.07999999999999999 2.0
  endloop
endfacet
facet normal 0.0 -1.0 0.0
  outer loop
    vertex 0.0 0.07999999999999999 2.0
    vertex 1.0399999999999998 0.07999999999999999 2.04
    vertex -0.039999999999999994 0.07999999999999999 2.0
  endloop
endfacet
facet normal 0.0 -1.0 0.0
  outer loop
    vertex -0.039999999999999994 0.07999999999999999 2.0
    vertex 1.0399999999999998 0.07999999999999999 2.04
    vertex -0.039999999999999994 0.07999999999999999 2.04
  endloop
endfacet
facet normal 0.0 0.0 -1.0
  outer loop
    vertex 1.0399999999999998 0.07999999999999999 2.04
    vertex -0.039999999999999994 -0.039999999999999994 2.04
    vertex -0.039999999999999994 0.07999999999999999 2.04
  endloop
endfacet
facet normal 0.0 0.0 -1.0
  outer loop
    vertex -0.039999999999999994 -0.039999999999999994 2.04
    vertex 1.0399999999999998 0.07999999999999999 2.04
    vertex 1.0399999999999998 -0.039999999999999994 2.04
  endloop
endfacet
facet normal 0.0 0.0 -1.0
  outer loop
    vertex 1.0399999999999998 -0.039999999999999994 2.04
    vertex 1.0399999999999998 0.07999999999999999 2.04
    vertex 1.0399999999999998 0.05999999999999999 2.04
  endloop
endfacet
facet normal 0.0 0.0 -1.0
  outer loop
    vertex 1.0399999999999998 -0.039999999999999994 2.04
    vertex 1.0399999999999998 0.05999999999999999 2.04
    vertex 1.0399999999999998 -0.019999999999999997 2.04
  endloop
endfacet
facet normal 0.0 -1.0 0.0
  outer loop
    vertex 1.8614934440300872 -0.4280582423617634 1.776111187546749
    vertex 1.8214934440300876 -0.4280582423617634 1.6961111875467476
    vertex 1.8614934440300872 -0.4280582423617634 1.6961111875467476
  endloop
endfacet
facet normal 0.0 -1.0 0.0
  outer loop
    vertex 1.8214934440300876 -0.4280582423617634 1.6961111875467476
    vertex 1.8614934440300872 -0.4280582423617634 1.776111187546749
    vertex 1.8214934440300876 -0.4280582423617634 1.776111187546749
  endloop
endfacet
facet normal -0.0 -0.0 1.0
  outer loop
    vertex 1.8614934440300872 -0.4280582423617634 1.776111187546749
    vertex 1.8214934440300876 -0.4180582423617635 1.776111187546749
    vertex 1.8214934440300876 -0.4280582423617634 1.776111187546749
  endloop
endfacet
facet normal -0.0 -0.0 1.0
  outer loop
    vertex 1.8214934440300876 -0.4180582423617635 1.776111187546749
    vertex 1.8614934440300872 -0.4280582423617634 1.776111187546749
    vertex 1.8614934440300872 -0.4180582423617635 1.776111187546749
  endloop
endfacet
facet normal -1.0 0.0 0.0
  outer loop
    vertex 1.8214934440300876 -0.4180582423617635 1.776111187546749
    vertex 1.8214934440300876 -0.4280582423617634 1.6961111875467476
    vertex 1.8214934440300876 -0.4280582423617634 1.776111187546749
  endloop
endfacet
facet normal -1.0 0.0 0.0
  outer loop
    vertex 1.8214934440300876 -0.4280582423617634 1.6961111875467476
    vertex 1.8214934440300876 -0.4180582423617635 1.776111187546749
    vertex 1.8214934440300876 -0.4180582423617635 1.6961111875467476
  endloop
endfacet
facet normal 0.0 0.0 -1.0
  outer loop
    vertex 1.8614934440300872 -0.4180582423617635 1.6961111875467476
    vertex 1.8214934440300876 -0.4280582423617634 1.6961111875467476
    vertex 1.8214934440300876 -0.4180582423617635 1.6961111875467476
  endloop
endfacet
facet normal 0.0 0.0 -1.0
  outer loop
    vertex 1.8214934440300876 -0.4280582423617634 1.6961111875467476
    vertex 1.8614934440300872 -0.4180582423617635 1.6961111875467476
    vertex 1.8614934440300872 -0.4280582423617634 1.6961111875467476
  endloop
endfacet
facet normal 1.0 -0.0 -0.0
  outer loop
    vertex 1.8614934440300872 -0.4180582423617635 1.6961111875467476
    vertex 1.8614934440300872 -0.4280582423617634 1.776111187546749
    vertex 1.8614934440300872 -0.4280582423617634 1.6961111875467476
  endloop
endfacet
facet normal 1.0 -0.0 -0.0
  outer loop
    vertex 1.8614934440300872 -0.4280582423617634 1.776111187546749
    vertex 1.8614934440300872 -0.4180582423617635 1.6961111875467476
    vertex 1.8614934440300872 -0.4180582423617635 1.776111187546749
  endloop
endfacet
facet normal 0.0 -1.0 0.0
  outer loop
    vertex 1.8614934440300872 -0.4180582423617635 1.776111187546749
    vertex 1.8214934440300876 -0.4180582423617635 1.6961111875467476
    vertex 1.8614934440300872 -0.4180582423617635 1.6961111875467476
  endloop
endfacet
facet normal 0.0 -1.0 0.0
  outer loop
    vertex 1.8214934440300876 -0.4180582423617635 1.6961111875467476
    vertex 1.8614934440300872 -0.4180582423617635 1.776111187546749
    vertex 1.8214934440300876 -0.4180582423617635 1.776111187546749
  endloop
endfacet
facet normal 1.0 -0.0 -0.0
  outer loop
    vertex 1.8614934440300872 -0.40805824236176325 1.6961111875467476
    vertex 1.8614934440300872 -0.4180582423617635 1.776111187546749
    vertex 1.8614934440300872 -0.4180582423617635 1.6961111875467476
  endloop
endfacet
facet normal 1.0 -0.0 -0.0
  outer loop
    vertex 1.8614934440300872 -0.4180582423617635 1.776111187546749
    vertex 1.8614934440300872 -0.40805824236176325 1.6961111875467476
    vertex 1.8614934440300872 -0.40805824236176325 1.776111187546749
  endloop
endfacet
facet normal -0.0 1.0 -0.0
  outer loop
    vertex 1.8214934440300876 -0.40805824236176325 1.776111187546749
    vertex 1.8614934440300872 -0.40805824236176325 1.6961111875467476
    vertex 1.8214934440300876 -0.40805824236176325 1.6961111875467476
  endloop
endfacet
facet normal -0.0 1.0 -0.0
  outer loop
    vertex 1.8614934440300872 -0.40805824236176325 1.6961111875467476
    vertex 1.8214934440300876 -0.40805824236176325 1.776111187546749
    vertex 1.8614934440300872 -0.40805824236176325 1.776111187546749
  endloop
endfacet
facet normal -0.0 -0.0 1.0
  outer loop
    vertex 1.8614934440300872 -0.4180582423617635 1.776111187546749
    vertex 1.8214934440300876 -0.40805824236176325 1.776111187546749
    vertex 1.8214934440300876 -0.4180582423617635 1.776111187546749
  endloop
endfacet
facet normal -0.0 -0.0 1.0
  outer loop
    vertex 1.8214934440300876 -0.40805824236176325 1.776111187546749
    vertex 1.8614934440300872 -0.4180582423617635 1.776111187546749
    vertex 1.8614934440300872 -0.40805824236176325 1.776111187546749
  endloop
endfacet
facet normal 0.0 0.0 -1.0
  outer loop
    vertex 1.8614934440300872 -0.40805824236176325 1.6961111875467476
    vertex 1.8214934440300876 -0.4180582423617635 1.6961111875467476
    vertex 1.8214934440300876 -0.40805824236176325 1.6961111875467476
  endloop
endfacet
facet normal 0.0 0.0 -1.0
  outer loop
    vertex 1.8214934440300876 -0.4180582423617635 1.6961111875467476
    vertex 1.8614934440300872 -0.40805824236176325 1.6961111875467476
    vertex 1.8614934440300872 -0.4180582423617635 1.6961111875467476
  endloop
endfacet
facet normal -1.0 0.0 0.0
  outer loop
    vertex 1.8214934440300876 -0.40805824236176325 1.776111187546749
    vertex 1.8214934440300876 -0.4180582423617635 1.6961111875467476
    vertex 1.8214934440300876 -0.4180582423617635 1.776111187546749
  endloop
endfacet
facet normal -1.0 0.0 0.0
  outer loop
    vertex 1.8214934440300876 -0.4180582423617635 1.6961111875467476
    vertex 1.8214934440300876 -0.40805824236176325 1.776111187546749
    vertex 1.8214934440300876 -0.40805824236176325 1.6961111875467476
  endloop
endfacet
facet normal 0.0 -1.0 0.0
  outer loop
    vertex 0.8110637280175271 -0.019999999999999962 0.9173533400567296
    vertex 0.6910637280175271 -0.019999999999999962 0.8973533400567296
    vertex 0.8110637280175271 -0.019999999999999962 0.8973533400567296
  endloop
endfacet
facet normal 0.0 -1.0 0.0
  outer loop
    vertex 0.6910637280175271 -0.019999999999999962 0.8973533400567296
    vertex 0.8110637280175271 -0.019999999999999962 0.9173533400567296
    vertex 0.6910637280175271 -0.019999999999999962 0.9173533400567296
  endloop
endfacet
facet normal 0.0 1.0 0.0
  outer loop
    vertex 0.6910637280175271 3.3839597790574767e-17 0.9173533400567296
    vertex 0.8110637280175271 3.3839597790574767e-17 0.8973533400567296
    vertex 0.6910637280175271 3.3839597790574767e-17 0.8973533400567296
  endloop
endfacet
facet normal 0.0 1.0 0.0
  outer loop
    vertex 0.8110637280175271 3.3839597790574767e-17 0.8973533400567296
    vertex 0.6910637280175271 3.3839597790574767e-17 0.9173533400567296
    vertex 0.8110637280175271 3.3839597790574767e-17 0.9173533400567296
  endloop
endfacet
facet normal -0.0 -0.0 -1.0
  outer loop
    vertex 0.8110637280175271 3.3839597790574767e-17 0.8973533400567296
    vertex 0.6910637280175271 -0.019999999999999962 0.8973533400567296
    vertex 0.6910637280175271 3.3839597790574767e-17 0.8973533400567296
  endloop
endfacet
facet normal -0.0 -0.0 -1.0
  outer loop
    vertex 0.6910637280175271 -0.019999999999999962 0.8973533400567296
    vertex 0.8110637280175271 3.3839597790574767e-17 0.8973533400567296
    vertex 0.8110637280175271 -0.019999999999999962 0.8973533400567296
  endloop
endfacet
facet normal -1.0 0.0 0.0
  outer loop
    vertex 0.6910637280175271 3.3839597790574767e-17 0.9173533400567296
    vertex 0.6910637280175271 -0.019999999999999962 0.8973533400567296
    vertex 0.6910637280175271 -0.019999999999999962 0.9173533400567296
  endloop
endfacet
facet normal -1.0 0.0 0.0
  outer loop
    vertex 0.6910637280175271 -0.019999999999999962 0.8973533400567296
    vertex 0.6910637280175271 3.3839597790574767e-17 0.9173533400567296
    vertex 0.6910637280175271 3.3839597790574767e-17 0.8973533400567296
  endloop
endfacet
facet normal 0.0 0.0 1.0
  outer loop
    vertex 0.8110637280175271 -0.019999999999999962 0.9173533400567296
    vertex 0.6910637280175271 3.3839597790574767e-17 0.9173533400567296
    vertex 0.6910637280175271 -0.019999999999999962 0.9173533400567296
  endloop
endfacet
facet normal 0.0 0.0 1.0
  outer loop
    vertex 0.6910637280175271 3.3839597790574767e-17 0.9173533400567296
    vertex 0.8110637280175271 -0.019999999999999962 0.9173533400567296
    vertex 0.8110637280175271 3.3839597790574767e-17 0.9173533400567296
  endloop
endfacet
facet normal 1.0 0.0 0.0
  outer loop
    vertex 0.8110637280175271 3.3839597790574767e-17 0.8973533400567296
    vertex 0.8110637280175271 -0.019999999999999962 0.9173533400567296
    vertex 0.8110637280175271 -0.019999999999999962 0.8973533400567296
  endloop
endfacet
facet normal 1.0 0.0 0.0
  outer loop
    vertex 0.8110637280175271 -0.019999999999999962 0.9173533400567296
    vertex 0.8110637280175271 3.3839597790574767e-17 0.8973533400567296
    vertex 0.8110637280175271 3.3839597790574767e-17 0.9173533400567296
  endloop
endfacet
facet normal 1.0 0.0 0.0
  outer loop
    vertex 0.8110637280175271 0.09598818269590262 0.8973533400567296
    vertex 0.8110637280175271 0.07598818269590263 0.9173533400567296
    vertex 0.8110637280175271 0.07598818269590263 0.8973533400567296
  endloop
endfacet
facet normal 1.0 0.0 0.0
  outer loop
    vertex 0.8110637280175271 0.07598818269590263 0.9173533400567296
    vertex 0.8110637280175271 0.09598818269590262 0.8973533400567296
    vertex 0.8110637280175271 0.09598818269590262 0.9173533400567296
  endloop
endfacet
facet normal -1.0 0.0 0.0
  outer loop
    vertex 0.6910637280175271 0.09598818269590262 0.9173533400567296
    vertex 0.6910637280175271 0.07598818269590263 0.8973533400567296
    vertex 0.6910637280175271 0.07598818269590263 0.9173533400567296
  endloop
endfacet
facet normal -1.0 0.0 0.0
  outer loop
    vertex 0.6910637280175271 0.07598818269590263 0.8973533400567296
    vertex 0.6910637280175271 0.09598818269590262 0.9173533400567296
    vertex 0.6910637280175271 0.09598818269590262 0.8973533400567296
  endloop
endfacet
facet normal 0.0 1.0 0.0
  outer loop
    vertex 0.6910637280175271 0.09598818269590262 0.9173533400567296
    vertex 0.8110637280175271 0.09598818269590262 0.8973533400567296
    vertex 0.6910637280175271 0.09598818269590262 0.8973533400567296
  endloop
endfacet
facet normal 0.0 1.0 0.0
  outer loop
    vertex 0.8110637280175271 0.09598818269590262 0.8973533400567296
    vertex 0.6910637280175271 0.09598818269590262 0.9173533400567296
    vertex 0.8110637280175271 0.09598818269590262 0.9173533400567296
  endloop
endfacet
facet normal -0.0 -0.0 -1.0
  outer loop
    vertex 0.8110637280175271 0.09598818269590262 0.8973533400567296
    vertex 0.6910637280175271 0.07598818269590263 0.8973533400567296
    vertex 0.6910637280175271 0.09598818269590262 0.8973533400567296
  endloop
endfacet
facet normal -0.0 -0.0 -1.0
  outer loop
    vertex 0.6910637280175271 0.07598818269590263 0.8973533400567296
    vertex 0.8110637280175271 0.09598818269590262 0.8973533400567296
    vertex 0.8110637280175271 0.07598818269590263 0.8973533400567296
  endloop
endfacet
facet normal 0.0 0.0 1.0
  outer loop
    vertex 0.8110637280175271 0.07598818269590263 0.9173533400567296
    vertex 0.6910637280175271 0.09598818269590262 0.9173533400567296
    vertex 0.6910637280175271 0.07598818269590263 0.9173533400567296
  endloop
endfacet
facet normal 0.0 0.0 1.0
  outer loop
    vertex 0.6910637280175271 0.09598818269590262 0.9173533400567296
    vertex 0.8110637280175271 0.07598818269590263 0.9173533400567296
    vertex 0.8110637280175271 0.09598818269590262 0.9173533400567296
  endloop
endfacet
facet normal 0.0 -1.0 0.0
  outer loop
    vertex 0.8110637280175271 0.07598818269590263 0.9173533400567296
    vertex 0.6910637280175271 0.07598818269590263 0.8973533400567296
    vertex 0.8110637280175271 0.07598818269590263 0.8973533400567296
  endloop
endfacet
facet normal 0.0 -1.0 0.0
  outer loop
    vertex 0.6910637280175271 0.07598818269590263 0.8973533400567296
    vertex 0.8110637280175271 0.07598818269590263 0.9173533400567296
    vertex 0.6910637280175271 0.07598818269590263 0.9173533400567296
  endloop
endfacet
facet normal 0.0 -1.0 0.0
  outer loop
    vertex 0.7510637280175272 0.020652229475468173 0.9373533400567295
    vertex 0.6910637280175271 0.020652229475468173 0.8773533400567297
    vertex 0.7510637280175272 0.020652229475468173 0.8773533400567297
  endloop
endfacet
facet normal 0.0 -1.0 0.0
  outer loop
    vertex 0.6910637280175271 0.020652229475468173 0.8773533400567297
    vertex 0.7510637280175272 0.020652229475468173 0.9373533400567295
    vertex 0.6910637280175271 0.020652229475468173 0.9373533400567295
  endloop
endfacet
facet normal 0.0 0.0 1.0
  outer loop
    vertex 0.7510637280175272 0.020652229475468173 0.9373533400567295
    vertex 0.6910637280175271 0.04065222947546818 0.9373533400567295
    vertex 0.6910637280175271 0.020652229475468173 0.9373533400567295
  endloop
endfacet
facet normal 0.0 0.0 1.0
  outer loop
    vertex 0.6910637280175271 0.04065222947546818 0.9373533400567295
    vertex 0.7510637280175272 0.020652229475468173 0.9373533400567295
    vertex 0.7510637280175272 0.04065222947546818 0.9373533400567295
  endloop
endfacet
facet normal 0.0 1.0 0.0
  outer loop
    vertex 0.6910637280175271 0.04065222947546818 0.9373533400567295
    vertex 0.7510637280175272 0.04065222947546818 0.8773533400567297
    vertex 0.6910637280175271 0.04065222947546818 0.8773533400567297
  endloop
endfacet
facet normal 0.0 1.0 0.0
  outer loop
    vertex 0.7510637280175272 0.04065222947546818 0.8773533400567297
    vertex 0.6910637280175271 0.04065222947546818 0.9373533400567295
    vertex 0.7510637280175272 0.04065222947546818 0.9373533400567295
  endloop
endfacet
facet normal -0.0 -0.0 -1.0
  outer loop
    vertex 0.7510637280175272 0.04065222947546818 0.8773533400567297
    vertex 0.6910637280175271 0.020652229475468173 0.8773533400567297
    vertex 0.6910637280175271 0.04065222947546818 0.8773533400567297
  endloop
endfacet
facet normal -0.0 -0.0 -1.0
  outer loop
    vertex 0.6910637280175271 0.020652229475468173 0.8773533400567297
    vertex 0.7510637280175272 0.04065222947546818 0.8773533400567297
    vertex 0.7510637280175272 0.020652229475468173 0.8773533400567297
  endloop
endfacet
facet normal -1.0 0.0 0.0
  outer loop
    vertex 0.6910637280175271 0.04065222947546818 0.9373533400567295
    vertex 0.6910637280175271 0.020652229475468173 0.8773533400567297
    vertex 0.6910637280175271 0.020652229475468173 0.9373533400567295
  endloop
endfacet
facet normal -1.0 0.0 0.0
  outer loop
    vertex 0.6910637280175271 0.020652229475468173 0.8773533400567297
    vertex 0.6910637280175271 0.04065222947546818 0.9373533400567295
    vertex 0.6910637280175271 0.04065222947546818 0.8773533400567297
  endloop
endfacet
facet normal 1.0 0.0 0.0
  outer loop
    vertex 0.7510637280175272 0.04065222947546818 0.8773533400567297
    vertex 0.7510637280175272 0.020652229475468173 0.9373533400567295
    vertex 0.7510637280175272 0.020652229475468173 0.8773533400567297
  endloop
endfacet
facet normal 1.0 0.0 0.0
  outer loop
    vertex 0.7510637280175272 0.020652229475468173 0.9373533400567295
    vertex 0.7510637280175272 0.04065222947546818 0.8773533400567297
    vertex 0.7510637280175272 0.04065222947546818 0.9373533400567295
  endloop
endfacet
facet normal -0.0 1.0 -0.0
  outer loop
    vertex 1.0399999999999998 -0.019999999999999997 2.04
    vertex 1.0599999999999998 -0.019999999999999997 2.0
    vertex 1.0399999999999998 -0.019999999999999997 2.0
  endloop
endfacet
facet normal -0.0 1.0 -0.0
  outer loop
    vertex 1.0599999999999998 -0.019999999999999997 2.0
    vertex 1.0399999999999998 -0.019999999999999997 2.04
    vertex 1.0599999999999998 -0.019999999999999997 2.04
  endloop
endfacet
facet normal 1.0 0.0 -0.0
  outer loop
    vertex 1.0599999999999998 -0.019999999999999997 2.0
    vertex 1.0599999999999998 -0.039999999999999994 2.04
    vertex 1.0599999999999998 -0.039999999999999994 2.0
  endloop
endfacet
facet normal 1.0 0.0 -0.0
  outer loop
    vertex 1.0599999999999998 -0.039999999999999994 2.04
    vertex 1.0599999999999998 -0.019999999999999997 2.0
    vertex 1.0599999999999998 -0.019999999999999997 2.04
  endloop
endfacet
facet normal -0.0 -0.0 1.0
  outer loop
    vertex 1.0599999999999998 -0.039999999999999994 2.04
    vertex 1.0399999999999998 -0.019999999999999997 2.04
    vertex 1.0399999999999998 -0.039999999999999994 2.04
  endloop
endfacet
facet normal -0.0 -0.0 1.0
  outer loop
    vertex 1.0399999999999998 -0.019999999999999997 2.04
    vertex 1.0599999999999998 -0.039999999999999994 2.04
    vertex 1.0599999999999998 -0.019999999999999997 2.04
  endloop
endfacet
facet normal 0.0 0.0 -1.0
  outer loop
    vertex 1.0599999999999998 -0.019999999999999997 2.0
    vertex 1.0399999999999998 -0.039999999999999994 2.0
    vertex 1.0399999999999998 -0.019999999999999997 2.0
  endloop
endfacet
facet normal 0.0 0.0 -1.0
  outer loop
    vertex 1.0399999999999998 -0.039999999999999994 2.0
    vertex 1.0599999999999998 -0.019999999999999997 2.0
    vertex 1.0599999999999998 -0.039999999999999994 2.0
  endloop
endfacet
facet normal -0.0 1.0 -0.0
  outer loop
    vertex 1.0399999999999998 0.07999999999999999 2.04
    vertex 1.0599999999999998 0.07999999999999999 2.0
    vertex 1.0399999999999998 0.07999999999999999 2.0
  endloop
endfacet
facet normal -0.0 1.0 -0.0
  outer loop
    vertex 1.0599999999999998 0.07999999999999999 2.0
    vertex 1.0399999999999998 0.07999999999999999 2.04
    vertex 1.0599999999999998 0.07999999999999999 2.04
  endloop
endfacet
facet normal 0.0 -1.0 0.0
  outer loop
    vertex 1.0599999999999998 0.05999999999999999 2.04
    vertex 1.0399999999999998 0.05999999999999999 2.0
    vertex 1.0599999999999998 0.05999999999999999 2.0
  endloop
endfacet
facet normal 0.0 -1.0 0.0
  outer loop
    vertex 1.0399999999999998 0.05999999999999999 2.0
    vertex 1.0599999999999998 0.05999999999999999 2.04
    vertex 1.0399999999999998 0.05999999999999999 2.04
  endloop
endfacet
facet normal 1.0 0.0 -0.0
  outer loop
    vertex 1.0599999999999998 0.07999999999999999 2.0
    vertex 1.0599999999999998 0.05999999999999999 2.04
    vertex 1.0599999999999998 0.05999999999999999 2.0
  endloop
endfacet
facet normal 1.0 0.0 -0.0
  outer loop
    vertex 1.0599999999999998 0.05999999999999999 2.04
    vertex 1.0599999999999998 0.07999999999999999 2.0
    vertex 1.0599999999999998 0.07999999999999999 2.04
  endloop
endfacet
facet normal -0.0 -0.0 1.0
  outer loop
    vertex 1.0599999999999998 0.05999999999999999 2.04
    vertex 1.0399999999999998 0.07999999999999999 2.04
    vertex 1.0399999999999998 0.05999999999999999 2.04
  endloop
endfacet
facet normal -0.0 -0.0 1.0
  outer loop
    vertex 1.0399999999999998 0.07999999999999999 2.04
    vertex 1.0599999999999998 0.05999999999999999 2.04
    vertex 1.0599999999999998 0.07999999999999999 2.04
  endloop
endfacet
facet normal 1.0 -0.0 -0.0
  outer loop
    vertex 1.0399999999999998 0.07999999999999999 2.0
    vertex 1.0399999999999998 0.05999999999999999 2.04
    vertex 1.0399999999999998 0.05999999999999999 2.0
  endloop
endfacet
facet normal 1.0 -0.0 -0.0
  outer loop
    vertex 1.0399999999999998 0.05999999999999999 2.04
    vertex 1.0399999999999998 0.07999999999999999 2.0
    vertex 1.0399999999999998 0.07999999999999999 2.04
  endloop
endfacet
facet normal 0.0 0.0 -1.0
  outer loop
    vertex 1.0599999999999998 0.07999999999999999 2.0
    vertex 1.0399999999999998 0.05999999999999999 2.0
    vertex 1.0399999999999998 0.07999999999999999 2.0
  endloop
endfacet
facet normal 0.0 0.0 -1.0
  outer loop
    vertex 1.0399999999999998 0.05999999999999999 2.0
    vertex 1.0599999999999998 0.07999999999999999 2.0
    vertex 1.0599999999999998 0.05999999999999999 2.0
  endloop
endfacet
facet normal 0.0 0.0 -1.0
  outer loop
    vertex 1.0599999999999998 0.07999999999999999 0.0
    vertex 1.0399999999999998 0.05999999999999999 0.0
    vertex 1.0399999999999998 0.07999999999999999 0.0
  endloop
endfacet
facet normal 0.0 0.0 -1.0
  outer loop
    vertex 1.0399999999999998 0.05999999999999999 0.0
    vertex 1.0599999999999998 0.07999999999999999 0.0
    vertex 1.0599999999999998 0.05999999999999999 0.0
  endloop
endfacet
facet normal 0.0 0.0 1.0
  outer loop
    vertex 1.0599999999999998 0.05999999999999999 0.03999999999999999
    vertex 1.0399999999999998 0.07999999999999999 0.03999999999999999
    vertex 1.0399999999999998 0.05999999999999999 0.03999999999999999
  endloop
endfacet
facet normal 0.0 0.0 1.0
  outer loop
    vertex 1.0399999999999998 0.07999999999999999 0.03999999999999999
    vertex 1.0599999999999998 0.05999999999999999 0.03999999999999999
    vertex 1.0599999999999998 0.07999999999999999 0.03999999999999999
  endloop
endfacet
facet normal -0.0 -1.0 -0.0
  outer loop
    vertex 1.0599999999999998 0.05999999999999999 0.03999999999999999
    vertex 1.0399999999999998 0.05999999999999999 0.0
    vertex 1.0599999999999998 0.05999999999999999 0.0
  endloop
endfacet
facet normal -0.0 -1.0 -0.0
  outer loop
    vertex 1.0399999999999998 0.05999999999999999 0.0
    vertex 1.0599999999999998 0.05999999999999999 0.03999999999999999
    vertex 1.0399999999999998 0.05999999999999999 0.03999999999999999
  endloop
endfacet
facet normal 1.0 -0.0 -0.0
  outer loop
    vertex 1.0399999999999998 0.07999999999999999 0.0
    vertex 1.0399999999999998 0.05999999999999999 0.03999999999999999
    vertex 1.0399999999999998 0.05999999999999999 0.0
  endloop
endfacet
facet normal 1.0 -0.0 -0.0
  outer loop
    vertex 1.0399999999999998 0.05999999999999999 0.03999999999999999
    vertex 1.0399999999999998 0.07999999999999999 0.0
    vertex 1.0399999999999998 0.07999999999999999 0.03999999999999999
  endloop
endfacet
facet normal -0.0 1.0 -0.0
  outer loop
    vertex 1.0399999999999998 0.07999999999999999 0.03999999999999999
    vertex 1.0599999999999998 0.07999999999999999 0.0
    vertex 1.0399999999999998 0.07999999999999999 0.0
  endloop
endfacet
facet normal -0.0 1.0 -0.0
  outer loop
    vertex 1.0599999999999998 0.07999999999999999 0.0
    vertex 1.0399999999999998 0.07999999999999999 0.03999999999999999
    vertex 1.0599999999999998 0.07999999999999999 0.03999999999999999
  endloop
endfacet
facet normal 1.0 0.0 0.0
  outer loop
    vertex 1.0599999999999998 0.07999999999999999 0.0
    vertex 1.0599999999999998 0.05999999999999999 0.03999999999999999
    vertex 1.0599999999999998 0.05999999999999999 0.0
  endloop
endfacet
facet normal 1.0 0.0 0.0
  outer loop
    vertex 1.0599999999999998 0.05999999999999999 0.03999999999999999
    vertex 1.0599999999999998 0.07999999999999999 0.0
    vertex 1.0599999999999998 0.07999999999999999 0.03999999999999999
  endloop
endfacet
facet normal -0.0 1.0 -0.0
  outer loop
    vertex 1.0399999999999998 -0.019999999999999997 0.04000000000000006
    vertex 1.0599999999999998 -0.019999999999999997 0.0
    vertex 1.0399999999999998 -0.019999999999999997 0.0
  endloop
endfacet
facet normal -0.0 1.0 -0.0
  outer loop
    vertex 1.0599999999999998 -0.019999999999999997 0.0
    vertex 1.0399999999999998 -0.019999999999999997 0.04000000000000006
    vertex 1.0599999999999998 -0.019999999999999997 0.03999999999999999
  endloop
endfacet
facet normal 3.6659564273122736e-15 0.0 1.0
  outer loop
    vertex 1.0599999999999998 -0.039999999999999994 0.03999999999999999
    vertex 1.0399999999999998 -0.019999999999999997 0.04000000000000006
    vertex 1.0399999999999998 -0.039999999999999994 0.04000000000000006
  endloop
endfacet
facet normal 3.6659564273122736e-15 0.0 1.0
  outer loop
    vertex 1.0399999999999998 -0.019999999999999997 0.04000000000000006
    vertex 1.0599999999999998 -0.039999999999999994 0.03999999999999999
    vertex 1.0599999999999998 -0.019999999999999997 0.03999999999999999
  endloop
endfacet
facet normal 0.0 0.0 -1.0
  outer loop
    vertex 1.0599999999999998 -0.019999999999999997 0.0
    vertex 1.0399999999999998 -0.039999999999999994 0.0
    vertex 1.0399999999999998 -0.019999999999999997 0.0
  endloop
endfacet
facet normal 0.0 0.0 -1.0
  outer loop
    vertex 1.0399999999999998 -0.039999999999999994 0.0
    vertex 1.0599999999999998 -0.019999999999999997 0.0
    vertex 1.0599999999999998 -0.039999999999999994 0.0
  endloop
endfacet
facet normal 1.0 0.0 -0.0
  outer loop
    vertex 1.0599999999999998 -0.019999999999999997 0.0
    vertex 1.0599999999999998 -0.039999999999999994 0.03999999999999999
    vertex 1.0599999999999998 -0.039999999999999994 0.0
  endloop
endfacet
facet normal 1.0 0.0 -0.0
  outer loop
    vertex 1.0599999999999998 -0.039999999999999994 0.03999999999999999
    vertex 1.0599999999999998 -0.019999999999999997 0.0
    vertex 1.0599999999999998 -0.019999999999999997 0.03999999999999999
  endloop
endfacet
facet normal 0.0 -1.0 0.0
  outer loop
    vertex 1.16 -0.039999999999999994 2.0
    vertex 1.0599999999999998 -0.039999999999999994 0.0
    vertex 1.16 -0.039999999999999994 0.0
  endloop
endfacet
facet normal 0.0 -1.0 0.0
  outer loop
    vertex 1.0599999999999998 -0.039999999999999994 0.0
    vertex 1.16 -0.039999999999999994 2.0
    vertex 1.0599999999999998 -0.039999999999999994 0.03999999999999999
  endloop
endfacet
facet normal 0.0 -1.0 0.0
  outer loop
    vertex 1.0599999999999998 -0.039999999999999994 0.03999999999999999
    vertex 1.16 -0.039999999999999994 2.0
    vertex 1.0399999999999998 -0.039999999999999994 0.04000000000000006
  endloop
endfacet
facet normal 0.0 -1.0 0.0
  outer loop
    vertex 1.0399999999999998 -0.039999999999999994 0.04000000000000006
    vertex 1.16 -0.039999999999999994 2.0
    vertex 1.0399999999999998 -0.039999999999999994 2.0
  endloop
endfacet
facet normal 0.0 -1.0 0.0
  outer loop
    vertex 1.0399999999999998 -0.039999999999999994 2.0
    vertex 1.16 -0.039999999999999994 2.0
    vertex 1.0599999999999998 -0.039999999999999994 2.0
  endloop
endfacet
facet normal 0.0 0.0 -1.0
  outer loop
    vertex 1.16 0.07999999999999999 0.0
    vertex 1.0599999999999998 0.05999999999999999 0.0
    vertex 1.0599999999999998 0.07999999999999999 0.0
  endloop
endfacet
facet normal 0.0 0.0 -1.0
  outer loop
    vertex 1.0599999999999998 0.05999999999999999 0.0
    vertex 1.16 0.07999999999999999 0.0
    vertex 1.0599999999999998 -0.019999999999999997 0.0
  endloop
endfacet
facet normal 0.0 0.0 -1.0
  outer loop
    vertex 1.0599999999999998 -0.019999999999999997 0.0
    vertex 1.16 0.07999999999999999 0.0
    vertex 1.0599999999999998 -0.039999999999999994 0.0
  endloop
endfacet
facet normal 0.0 0.0 -1.0
  outer loop
    vertex 1.0599999999999998 -0.039999999999999994 0.0
    vertex 1.16 0.07999999999999999 0.0
    vertex 1.16 -0.039999999999999994 0.0
  endloop
endfacet
facet normal 0.0 0.0 -1.0
  outer loop
    vertex 1.0599999999999998 0.05999999999999999 0.0
    vertex 1.0399999999999998 -0.019999999999999997 0.0
    vertex 1.0399999999999998 0.05999999999999999 0.0
  endloop
endfacet
facet normal 0.0 0.0 -1.0
  outer loop
    vertex 1.0399999999999998 -0.019999999999999997 0.0
    vertex 1.0599999999999998 0.05999999999999999 0.0
    vertex 1.0599999999999998 -0.019999999999999997 0.0
  endloop
endfacet
facet normal 1.0 -0.0 -0.0
  outer loop
    vertex 1.16 0.07999999999999999 0.0
    vertex 1.16 -0.039999999999999994 2.0
    vertex 1.16 -0.039999999999999994 0.0
  endloop
endfacet
facet normal 1.0 -0.0 -0.0
  outer loop
    vertex 1.16 -0.039999999999999994 2.0
    vertex 1.16 0.07999999999999999 0.0
    vertex 1.16 0.07999999999999999 2.0
  endloop
endfacet
facet normal 0.0 0.0 -1.0
  outer loop
    vertex 1.16 0.07999999999999999 2.0
    vertex 1.0599999999999998 0.05999999999999999 2.0
    vertex 1.0599999999999998 0.07999999999999999 2.0
  endloop
endfacet
facet normal 0.0 0.0 -1.0
  outer loop
    vertex 1.0599999999999998 0.05999999999999999 2.0
    vertex 1.16 0.07999999999999999 2.0
    vertex 1.0599999999999998 -0.019999999999999997 2.0
  endloop
endfacet
facet normal 0.0 0.0 -1.0
  outer loop
    vertex 1.0599999999999998 -0.019999999999999997 2.0
    vertex 1.16 0.07999999999999999 2.0
    vertex 1.0599999999999998 -0.039999999999999994 2.0
  endloop
endfacet
facet normal 0.0 0.0 -1.0
  outer loop
    vertex 1.0599999999999998 -0.039999999999999994 2.0
    vertex 1.16 0.07999999999999999 2.0
    vertex 1.16 -0.039999999999999994 2.0
  endloop
endfacet
facet normal 0.0 0.0 -1.0
  outer loop
    vertex 1.0599999999999998 0.05999999999999999 2.0
    vertex 1.0399999999999998 -0.019999999999999997 2.0
    vertex 1.0399999999999998 0.05999999999999999 2.0
  endloop
endfacet
facet normal 0.0 0.0 -1.0
  outer loop
    vertex 1.0399999999999998 -0.019999999999999997 2.0
    vertex 1.0599999999999998 0.05999999999999999 2.0
    vertex 1.0599999999999998 -0.019999999999999997 2.0
  endloop
endfacet
facet normal -0.0 1.0 -0.0
  outer loop
    vertex 1.0399999999999998 0.07999999999999999 2.0
    vertex 1.0599999999999998 0.07999999999999999 0.03999999999999999
    vertex 1.0399999999999998 0.07999999999999999 0.03999999999999999
  endloop
endfacet
facet normal -0.0 1.0 -0.0
  outer loop
    vertex 1.0599999999999998 0.07999999999999999 0.03999999999999999
    vertex 1.16 0.07999999999999999 0.0
    vertex 1.0599999999999998 0.07999999999999999 0.0
  endloop
endfacet
facet normal -0.0 1.0 -0.0
  outer loop
    vertex 1.16 0.07999999999999999 0.0
    vertex 1.0599999999999998 0.07999999999999999 0.03999999999999999
    vertex 1.16 0.07999999999999999 2.0
  endloop
endfacet
facet normal -0.0 1.0 -0.0
  outer loop
    vertex 1.16 0.07999999999999999 2.0
    vertex 1.0599999999999998 0.07999999999999999 0.03999999999999999
    vertex 1.0399999999999998 0.07999999999999999 2.0
  endloop
endfacet
facet normal -0.0 1.0 -0.0
  outer loop
    vertex 1.16 0.07999999999999999 2.0
    vertex 1.0399999999999998 0.07999999999999999 2.0
    vertex 1.0599999999999998 0.07999999999999999 2.0
  endloop
endfacet
facet normal -1.0 -0.0 -0.0
  outer loop
    vertex 1.4288209615743575 0.07999999999999999 2.0
    vertex 1.4288209615743575 -0.039999999999999994 0.0
    vertex 1.4288209615743575 -0.039999999999999994 2.0
  endloop
endfacet
facet normal -1.0 -0.0 -0.0
  outer loop
    vertex 1.4288209615743575 -0.039999999999999994 0.0
    vertex 1.4288209615743575 0.07999999999999999 2.0
    vertex 1.4288209615743575 0.07999999999999999 0.0
  endloop
endfacet
facet normal 1.0 0.0 0.0
  outer loop
    vertex 1.9288209615743575 0.07999999999999999 0.0
    vertex 1.9288209615743575 -0.039999999999999994 2.0
    vertex 1.9288209615743575 -0.039999999999999994 0.0
  endloop
endfacet
facet normal 1.0 0.0 0.0
  outer loop
    vertex 1.9288209615743575 -0.039999999999999994 2.0
    vertex 1.9288209615743575 0.07999999999999999 0.0
    vertex 1.9288209615743575 0.07999999999999999 2.0
  endloop
endfacet
facet normal 0.0 1.0 0.0
  outer loop
    vertex 1.4288209615743575 0.07999999999999999 2.0
    vertex 1.9288209615743575 0.07999999999999999 0.0
    vertex 1.4288209615743575 0.07999999999999999 0.0
  endloop
endfacet
facet normal 0.0 1.0 0.0
  outer loop
    vertex 1.9288209615743575 0.07999999999999999 0.0
    vertex 1.4288209615743575 0.07999999999999999 2.0
    vertex 1.9288209615743575 0.07999999999999999 2.0
  endloop
endfacet
facet normal -0.0 0.0 1.0
  outer loop
    vertex 1.9288209615743575 -0.039999999999999994 2.0
    vertex 1.4288209615743575 0.07999999999999999 2.0
    vertex 1.4288209615743575 -0.039999999999999994 2.0
  endloop
endfacet
facet normal -0.0 0.0 1.0
  outer loop
    vertex 1.4288209615743575 0.07999999999999999 2.0
    vertex 1.9288209615743575 -0.039999999999999994 2.0
    vertex 1.9288209615743575 0.07999999999999999 2.0
  endloop
endfacet
facet normal 0.0 -1.0 0.0
  outer loop
    vertex 1.9288209615743575 -0.039999999999999994 2.0
    vertex 1.4288209615743575 -0.039999999999999994 0.0
    vertex 1.9288209615743575 -0.039999999999999994 0.0
  endloop
endfacet
facet normal 0.0 -1.0 0.0
  outer loop
    vertex 1.4288209615743575 -0.039999999999999994 0.0
    vertex 1.9288209615743575 -0.039999999999999994 2.0
    vertex 1.4288209615743575 -0.039999999999999994 2.0
  endloop
endfacet
facet normal 0.0 0.0 -1.0
  outer loop
    vertex 1.9288209615743575 0.07999999999999999 0.0
    vertex 1.4288209615743575 -0.039999999999999994 0.0
    vertex 1.4288209615743575 0.07999999999999999 0.0
  endloop
endfacet
facet normal 0.0 0.0 -1.0
  outer loop
    vertex 1.4288209615743575 -0.039999999999999994 0.0
    vertex 1.9288209615743575 0.07999999999999999 0.0
    vertex 1.9288209615743575 -0.039999999999999994 0.0
  endloop
endfacet
endsolid Door
