solid Foundation Block
facet normal 2.1028628124070078e-32 -2.4852015055715376e-32 -1.0
  outer loop
    vertex 0.010352761804098162 0.5613629669485959 -0.11999999999999998
    vertex 6.767919558114953e-17 0.03999999999999975 -0.11999999999999998
    vertex -2.7128077562110774e-15 0.5600000000001586 -0.11999999999999998
  endloop
endfacet
facet normal 2.1028628124070078e-32 -2.4852015055715376e-32 -1.0
  outer loop
    vertex 6.767919558114953e-17 0.03999999999999975 -0.11999999999999998
    vertex 0.010352761804098162 0.5613629669485959 -0.11999999999999998
    vertex 0.010352761804100823 0.03863703305156246 -0.11999999999999998
  endloop
endfacet
facet normal 2.1028628124070078e-32 -2.4852015055715376e-32 -1.0
  outer loop
    vertex 0.010352761804100823 0.03863703305156246 -0.11999999999999998
    vertex 0.010352761804098162 0.5613629669485959 -0.11999999999999998
    vertex 0.019999999999997402 0.5653589838487811 -0.11999999999999998
  endloop
endfacet
facet normal 2.1028628124070078e-32 -2.4852015055715376e-32 -1.0
  outer loop
    vertex 0.010352761804100823 0.03863703305156246 -0.11999999999999998
    vertex 0.019999999999997402 0.5653589838487811 -0.11999999999999998
    vertex 0.01999999999999993 0.03464101615137729 -0.11999999999999998
  endloop
endfacet
facet normal 2.1028628124070078e-32 -2.4852015055715376e-32 -1.0
  outer loop
    vertex 0.01999999999999993 0.03464101615137729 -0.11999999999999998
    vertex 0.019999999999997402 0.5653589838487811 -0.11999999999999998
    vertex 0.02828427124745939 0.5717157287526967 -0.11999999999999998
  endloop
endfacet
facet normal 2.1028628124070078e-32 -2.4852015055715376e-32 -1.0
  outer loop
    vertex 0.01999999999999993 0.03464101615137729 -0.11999999999999998
    vertex 0.02828427124745939 0.5717157287526967 -0.11999999999999998
    vertex 0.02828427124746178 0.028284271247461672 -0.11999999999999998
  endloop
endfacet
facet normal 2.1028628124070078e-32 -2.4852015055715376e-32 -1.0
  outer loop
    vertex 0.02828427124746178 0.028284271247461672 -0.11999999999999998
    vertex 0.02828427124745939 0.5717157287526967 -0.11999999999999998
    vertex 0.03464101615137508 0.5800000000001587 -0.11999999999999998
  endloop
endfacet
facet normal 2.1028628124070078e-32 -2.4852015055715376e-32 -1.0
  outer loop
    vertex 0.02828427124746178 0.028284271247461672 -0.11999999999999998
    vertex 0.03464101615137508 0.5800000000001587 -0.11999999999999998
    vertex 0.034641016151377386 0.019999999999999813 -0.11999999999999998
  endloop
endfacet
facet normal 2.1028628124070078e-32 -2.4852015055715376e-32 -1.0
  outer loop
    vertex 0.034641016151377386 0.019999999999999813 -0.11999999999999998
    vertex 0.03464101615137508 0.5800000000001587 -0.11999999999999998
    vertex 0.03863703305156031 0.589647238196058 -0.11999999999999998
  endloop
endfacet
facet normal 2.1028628124070078e-32 -2.4852015055715376e-32 -1.0
  outer loop
    vertex 0.034641016151377386 0.019999999999999813 -0.11999999999999998
    vertex 0.03863703305156031 0.589647238196058 -0.11999999999999998
    vertex 0.03863703305156252 0.010352761804100703 -0.11999999999999998
  endloop
endfacet
facet normal 2.1028628124070078e-32 -2.4852015055715376e-32 -1.0
  outer loop
    vertex 0.03863703305156252 0.010352761804100703 -0.11999999999999998
    vertex 0.03863703305156031 0.589647238196058 -0.11999999999999998
    vertex 0.03999999999999758 0.6000000000001589 -0.11999999999999998
  endloop
endfacet
facet normal 2.1028628124070078e-32 -2.4852015055715376e-32 -1.0
  outer loop
    vertex 0.03863703305156252 0.010352761804100703 -0.11999999999999998
    vertex 0.03999999999999758 0.6000000000001589 -0.11999999999999998
    vertex 0.03999999999999977 -6.203926261605374e-17 -0.11999999999999998
  endloop
endfacet
facet normal 2.1028628124070078e-32 -2.4852015055715376e-32 -1.0
  outer loop
    vertex 0.03999999999999977 -6.203926261605374e-17 -0.11999999999999998
    vertex 0.03999999999999758 0.6000000000001589 -0.11999999999999998
    vertex 0.5600000000000113 0.5999999999999718 -0.11999999999999998
  endloop
endfacet
facet normal 2.1028628124070078e-32 -2.4852015055715376e-32 -1.0
  outer loop
    vertex 0.03999999999999977 -6.203926261605374e-17 -0.11999999999999998
    vertex 0.5600000000000113 0.5999999999999718 -0.11999999999999998
    vertex 0.5599999999999989 -1.522217907279355e-14 -0.11999999999999998
  endloop
endfacet
facet normal 2.1028628124070078e-32 -2.4852015055715376e-32 -1.0
  outer loop
    vertex 0.5599999999999989 -1.522217907279355e-14 -0.11999999999999998
    vertex 0.5600000000000113 0.5999999999999718 -0.11999999999999998
    vertex 0.5613629669484397 0.010352761804088272 -0.11999999999999998
  endloop
endfacet
facet normal 2.1028628124070078e-32 -2.4852015055715376e-32 -1.0
  outer loop
    vertex 0.5613629669484397 0.010352761804088272 -0.11999999999999998
    vertex 0.5600000000000113 0.5999999999999718 -0.11999999999999998
    vertex 0.5613629669484486 0.5896472381958711 -0.11999999999999998
  endloop
endfacet
facet normal 2.1028628124070078e-32 -2.4852015055715376e-32 -1.0
  outer loop
    vertex 0.5613629669484397 0.010352761804088272 -0.11999999999999998
    vertex 0.5613629669484486 0.5896472381958711 -0.11999999999999998
    vertex 0.5653589838486289 0.019999999999989117 -0.11999999999999998
  endloop
endfacet
facet normal 2.1028628124070078e-32 -2.4852015055715376e-32 -1.0
  outer loop
    vertex 0.5653589838486289 0.019999999999989117 -0.11999999999999998
    vertex 0.5613629669484486 0.5896472381958711 -0.11999999999999998
    vertex 0.5653589838486338 0.5799999999999719 -0.11999999999999998
  endloop
endfacet
facet normal 2.1028628124070078e-32 -2.4852015055715376e-32 -1.0
  outer loop
    vertex 0.5653589838486289 0.019999999999989117 -0.11999999999999998
    vertex 0.5653589838486338 0.5799999999999719 -0.11999999999999998
    vertex 0.5717157287525488 0.02828427124745161 -0.11999999999999998
  endloop
endfacet
facet normal 2.1028628124070078e-32 -2.4852015055715376e-32 -1.0
  outer loop
    vertex 0.5717157287525488 0.02828427124745161 -0.11999999999999998
    vertex 0.5653589838486338 0.5799999999999719 -0.11999999999999998
    vertex 0.5717157287525494 0.5717157287525101 -0.11999999999999998
  endloop
endfacet
facet normal 2.1028628124070078e-32 -2.4852015055715376e-32 -1.0
  outer loop
    vertex 0.5717157287525488 0.02828427124745161 -0.11999999999999998
    vertex 0.5717157287525494 0.5717157287525101 -0.11999999999999998
    vertex 0.5800000000000152 0.03464101615136671 -0.11999999999999998
  endloop
endfacet
facet normal 2.1028628124070078e-32 -2.4852015055715376e-32 -1.0
  outer loop
    vertex 0.5800000000000152 0.03464101615136671 -0.11999999999999998
    vertex 0.5717157287525494 0.5717157287525101 -0.11999999999999998
    vertex 0.5800000000000112 0.5653589838485945 -0.11999999999999998
  endloop
endfacet
facet normal 2.1028628124070078e-32 -2.4852015055715376e-32 -1.0
  outer loop
    vertex 0.5800000000000152 0.03464101615136671 -0.11999999999999998
    vertex 0.5800000000000112 0.5653589838485945 -0.11999999999999998
    vertex 0.5896472381959104 0.5613629669484094 -0.11999999999999998
  endloop
endfacet
facet normal 2.1028628124070078e-32 -2.4852015055715376e-32 -1.0
  outer loop
    vertex 0.5800000000000152 0.03464101615136671 -0.11999999999999998
    vertex 0.5896472381959104 0.5613629669484094 -0.11999999999999998
    vertex 0.5896472381959184 0.038637033051550244 -0.11999999999999998
  endloop
endfacet
facet normal 2.1028628124070078e-32 -2.4852015055715376e-32 -1.0
  outer loop
    vertex 0.5896472381959184 0.038637033051550244 -0.11999999999999998
    vertex 0.5896472381959104 0.5613629669484094 -0.11999999999999998
    vertex 0.6000000000000112 0.5599999999999721 -0.11999999999999998
  endloop
endfacet
facet normal 2.1028628124070078e-32 -2.4852015055715376e-32 -1.0
  outer loop
    vertex 0.5896472381959184 0.038637033051550244 -0.11999999999999998
    vertex 0.6000000000000112 0.5599999999999721 -0.11999999999999998
    vertex 0.6000000000000225 0.03999999999998489 -0.11999999999999998
  endloop
endfacet
facet normal 1.0 2.1865586264679623e-14 -0.0
  outer loop
    vertex 0.6000000000000112 0.5599999999999721 -0.11999999999999998
    vertex 0.6000000000000225 0.03999999999998489 0.0
    vertex 0.6000000000000225 0.03999999999998489 -0.11999999999999998
  endloop
endfacet
facet normal 1.0 2.1865586264679623e-14 -0.0
  outer loop
    vertex 0.6000000000000225 0.03999999999998489 0.0
    vertex 0.6000000000000112 0.5599999999999721 -0.11999999999999998
    vertex 0.6000000000000112 0.5599999999999721 0.0
  endloop
endfacet
facet normal 0.13052619221976197 -0.9914448613738487 0.0
  outer loop
    vertex 0.6000000000000225 0.03999999999998489 0.0
    vertex 0.5896472381959184 0.038637033051550244 -0.11999999999999998
    vertex 0.6000000000000225 0.03999999999998489 -0.11999999999999998
  endloop
endfacet
facet normal 0.13052619221976197 -0.9914448613738487 0.0
  outer loop
    vertex 0.5896472381959184 0.038637033051550244 -0.11999999999999998
    vertex 0.6000000000000225 0.03999999999998489 0.0
    vertex 0.5896472381959184 0.038637033051550244 0.0
  endloop
endfacet
facet normal 0.3826834323648211 -0.923879532511398 0.0
  outer loop
    vertex 0.5896472381959184 0.038637033051550244 0.0
    vertex 0.5800000000000152 0.03464101615136671 -0.11999999999999998
    vertex 0.5896472381959184 0.038637033051550244 -0.11999999999999998
  endloop
endfacet
facet normal 0.3826834323648211 -0.923879532511398 0.0
  outer loop
    vertex 0.5800000000000152 0.03464101615136671 -0.11999999999999998
    vertex 0.5896472381959184 0.038637033051550244 0.0
    vertex 0.5800000000000152 0.03464101615136671 0.0
  endloop
endfacet
facet normal 0.6087614290084824 -0.793353340291418 0.0
  outer loop
    vertex 0.5800000000000152 0.03464101615136671 0.0
    vertex 0.5717157287525488 0.02828427124745161 -0.11999999999999998
    vertex 0.5800000000000152 0.03464101615136671 -0.11999999999999998
  endloop
endfacet
facet normal 0.6087614290084824 -0.793353340291418 0.0
  outer loop
    vertex 0.5717157287525488 0.02828427124745161 -0.11999999999999998
    vertex 0.5800000000000152 0.03464101615136671 0.0
    vertex 0.5717157287525488 0.02828427124745161 0.0
  endloop
endfacet
facet normal 0.7933533402910603 -0.6087614290089487 -0.0
  outer loop
    vertex 0.5717157287525488 0.02828427124745161 -0.11999999999999998
    vertex 0.5653589838486289 0.019999999999989117 0.0
    vertex 0.5653589838486289 0.019999999999989117 -0.11999999999999998
  endloop
endfacet
facet normal 0.7933533402910603 -0.6087614290089487 -0.0
  outer loop
    vertex 0.5653589838486289 0.019999999999989117 0.0
    vertex 0.5717157287525488 0.02828427124745161 -0.11999999999999998
    vertex 0.5717157287525488 0.02828427124745161 0.0
  endloop
endfacet
facet normal 0.9238795325111729 -0.3826834323653645 -0.0
  outer loop
    vertex 0.5653589838486289 0.019999999999989117 -0.11999999999999998
    vertex 0.5613629669484397 0.010352761804088272 0.0
    vertex 0.5613629669484397 0.010352761804088272 -0.11999999999999998
  endloop
endfacet
facet normal 0.9238795325111729 -0.3826834323653645 -0.0
  outer loop
    vertex 0.5613629669484397 0.010352761804088272 0.0
    vertex 0.5653589838486289 0.019999999999989117 -0.11999999999999998
    vertex 0.5653589838486289 0.019999999999989117 0.0
  endloop
endfacet
facet normal 0.9914448613737716 -0.13052619222034575 -0.0
  outer loop
    vertex 0.5613629669484397 0.010352761804088272 -0.11999999999999998
    vertex 0.5599999999999989 -1.522217907279355e-14 0.0
    vertex 0.5599999999999989 -1.522217907279355e-14 -0.11999999999999998
  endloop
endfacet
facet normal 0.9914448613737716 -0.13052619222034575 -0.0
  outer loop
    vertex 0.5599999999999989 -1.522217907279355e-14 0.0
    vertex 0.5613629669484397 0.010352761804088272 -0.11999999999999998
    vertex 0.5613629669484397 0.010352761804088272 0.0
  endloop
endfacet
facet normal -2.915411501957215e-14 -1.0 0.0
  outer loop
    vertex 0.5599999999999989 -1.522217907279355e-14 0.0
    vertex 0.03999999999999977 -6.203926261605374e-17 -0.11999999999999998
    vertex 0.5599999999999989 -1.522217907279355e-14 -0.11999999999999998
  endloop
endfacet
facet normal -2.915411501957215e-14 -1.0 0.0
  outer loop
    vertex 0.03999999999999977 -6.203926261605374e-17 -0.11999999999999998
    vertex 0.5599999999999989 -1.522217907279355e-14 0.0
    vertex 0.03999999999999977 -6.203926261605374e-17 0.0
  endloop
endfacet
facet normal -0.9914448613738105 -0.13052619222005046 0.0
  outer loop
    vertex 0.03863703305156252 0.010352761804100703 0.0
    vertex 0.03999999999999977 -6.203926261605374e-17 -0.11999999999999998
    vertex 0.03999999999999977 -6.203926261605374e-17 0.0
  endloop
endfacet
facet normal -0.9914448613738105 -0.13052619222005046 0.0
  outer loop
    vertex 0.03999999999999977 -6.203926261605374e-17 -0.11999999999999998
    vertex 0.03863703305156252 0.010352761804100703 0.0
    vertex 0.03863703305156252 0.010352761804100703 -0.11999999999999998
  endloop
endfacet
facet normal -0.9238795325112876 -0.3826834323650877 0.0
  outer loop
    vertex 0.034641016151377386 0.019999999999999813 0.0
    vertex 0.03863703305156252 0.010352761804100703 -0.11999999999999998
    vertex 0.03863703305156252 0.010352761804100703 0.0
  endloop
endfacet
facet normal -0.9238795325112876 -0.3826834323650877 0.0
  outer loop
    vertex 0.03863703305156252 0.010352761804100703 -0.11999999999999998
    vertex 0.034641016151377386 0.019999999999999813 0.0
    vertex 0.034641016151377386 0.019999999999999813 -0.11999999999999998
  endloop
endfacet
facet normal -0.7933533402912355 -0.6087614290087201 0.0
  outer loop
    vertex 0.02828427124746178 0.028284271247461672 0.0
    vertex 0.034641016151377386 0.019999999999999813 -0.11999999999999998
    vertex 0.034641016151377386 0.019999999999999813 0.0
  endloop
endfacet
facet normal -0.7933533402912355 -0.6087614290087201 0.0
  outer loop
    vertex 0.034641016151377386 0.019999999999999813 -0.11999999999999998
    vertex 0.02828427124746178 0.028284271247461672 0.0
    vertex 0.02828427124746178 0.028284271247461672 -0.11999999999999998
  endloop
endfacet
facet normal -0.6087614290087214 -0.7933533402912347 0.0
  outer loop
    vertex 0.02828427124746178 0.028284271247461672 0.0
    vertex 0.01999999999999993 0.03464101615137729 -0.11999999999999998
    vertex 0.02828427124746178 0.028284271247461672 -0.11999999999999998
  endloop
endfacet
facet normal -0.6087614290087214 -0.7933533402912347 0.0
  outer loop
    vertex 0.01999999999999993 0.03464101615137729 -0.11999999999999998
    vertex 0.02828427124746178 0.028284271247461672 0.0
    vertex 0.01999999999999993 0.03464101615137729 0.0
  endloop
endfacet
facet normal -0.38268343236509056 -0.9238795325112865 0.0
  outer loop
    vertex 0.01999999999999993 0.03464101615137729 0.0
    vertex 0.010352761804100823 0.03863703305156246 -0.11999999999999998
    vertex 0.01999999999999993 0.03464101615137729 -0.11999999999999998
  endloop
endfacet
facet normal -0.38268343236509056 -0.9238795325112865 0.0
  outer loop
    vertex 0.010352761804100823 0.03863703305156246 -0.11999999999999998
    vertex 0.01999999999999993 0.03464101615137729 0.0
    vertex 0.010352761804100823 0.03863703305156246 0.0
  endloop
endfacet
facet normal -0.13052619222005477 -0.99144486137381 0.0
  outer loop
    vertex 0.010352761804100823 0.03863703305156246 0.0
    vertex 6.767919558114953e-17 0.03999999999999975 -0.11999999999999998
    vertex 0.010352761804100823 0.03863703305156246 -0.11999999999999998
  endloop
endfacet
facet normal -0.13052619222005477 -0.99144486137381 0.0
  outer loop
    vertex 6.767919558114953e-17 0.03999999999999975 -0.11999999999999998
    vertex 0.010352761804100823 0.03863703305156246 0.0
    vertex 6.767919558114953e-17 0.03999999999999975 0.0
  endloop
endfacet
facet normal -1.0 -5.347090291906495e-15 0.0
  outer loop
    vertex -2.7128077562110774e-15 0.5600000000001586 0.0
    vertex 6.767919558114953e-17 0.03999999999999975 -0.11999999999999998
    vertex 6.767919558114953e-17 0.03999999999999975 0.0
  endloop
endfacet
facet normal -1.0 -5.347090291906495e-15 0.0
  outer loop
    vertex 6.767919558114953e-17 0.03999999999999975 -0.11999999999999998
    vertex -2.7128077562110774e-15 0.5600000000001586 0.0
    vertex -2.7128077562110774e-15 0.5600000000001586 -0.11999999999999998
  endloop
endfacet
facet normal -0.1305261922200555 0.99144486137381 -0.0
  outer loop
    vertex -2.7128077562110774e-15 0.5600000000001586 0.0
    vertex 0.010352761804098162 0.5613629669485959 -0.11999999999999998
    vertex -2.7128077562110774e-15 0.5600000000001586 -0.11999999999999998
  endloop
endfacet
facet normal -0.1305261922200555 0.99144486137381 -0.0
  outer loop
    vertex 0.010352761804098162 0.5613629669485959 -0.11999999999999998
    vertex -2.7128077562110774e-15 0.5600000000001586 0.0
    vertex 0.010352761804098162 0.5613629669485959 0.0
  endloop
endfacet
facet normal -0.3826834323650869 0.9238795325112881 -0.0
  outer loop
    vertex 0.010352761804098162 0.5613629669485959 0.0
    vertex 0.019999999999997402 0.5653589838487811 -0.11999999999999998
    vertex 0.010352761804098162 0.5613629669485959 -0.11999999999999998
  endloop
endfacet
facet normal -0.3826834323650869 0.9238795325112881 -0.0
  outer loop
    vertex 0.019999999999997402 0.5653589838487811 -0.11999999999999998
    vertex 0.010352761804098162 0.5613629669485959 0.0
    vertex 0.019999999999997402 0.5653589838487811 0.0
  endloop
endfacet
facet normal -0.6087614290087164 0.7933533402912383 -0.0
  outer loop
    vertex 0.019999999999997402 0.5653589838487811 0.0
    vertex 0.02828427124745939 0.5717157287526967 -0.11999999999999998
    vertex 0.019999999999997402 0.5653589838487811 -0.11999999999999998
  endloop
endfacet
facet normal -0.6087614290087164 0.7933533402912383 -0.0
  outer loop
    vertex 0.02828427124745939 0.5717157287526967 -0.11999999999999998
    vertex 0.019999999999997402 0.5653589838487811 0.0
    vertex 0.02828427124745939 0.5717157287526967 0.0
  endloop
endfacet
facet normal -0.7933533402912366 0.6087614290087188 0.0
  outer loop
    vertex 0.03464101615137508 0.5800000000001587 0.0
    vertex 0.02828427124745939 0.5717157287526967 -0.11999999999999998
    vertex 0.02828427124745939 0.5717157287526967 0.0
  endloop
endfacet
facet normal -0.7933533402912366 0.6087614290087188 0.0
  outer loop
    vertex 0.02828427124745939 0.5717157287526967 -0.11999999999999998
    vertex 0.03464101615137508 0.5800000000001587 0.0
    vertex 0.03464101615137508 0.5800000000001587 -0.11999999999999998
  endloop
endfacet
facet normal -0.9238795325112863 0.3826834323650909 0.0
  outer loop
    vertex 0.03863703305156031 0.589647238196058 0.0
    vertex 0.03464101615137508 0.5800000000001587 -0.11999999999999998
    vertex 0.03464101615137508 0.5800000000001587 0.0
  endloop
endfacet
facet normal -0.9238795325112863 0.3826834323650909 0.0
  outer loop
    vertex 0.03464101615137508 0.5800000000001587 -0.11999999999999998
    vertex 0.03863703305156031 0.589647238196058 0.0
    vertex 0.03863703305156031 0.589647238196058 -0.11999999999999998
  endloop
endfacet
facet normal -0.9914448613738105 0.13052619222005074 0.0
  outer loop
    vertex 0.03999999999999758 0.6000000000001589 0.0
    vertex 0.03863703305156031 0.589647238196058 -0.11999999999999998
    vertex 0.03863703305156031 0.589647238196058 0.0
  endloop
endfacet
facet normal -0.9914448613738105 0.13052619222005074 0.0
  outer loop
    vertex 0.03863703305156031 0.589647238196058 -0.11999999999999998
    vertex 0.03999999999999758 0.6000000000001589 0.0
    vertex 0.03999999999999758 0.6000000000001589 -0.11999999999999998
  endloop
endfacet
facet normal 3.599144913725653e-13 1.0 -0.0
  outer loop
    vertex 0.03999999999999758 0.6000000000001589 0.0
    vertex 0.5600000000000113 0.5999999999999718 -0.11999999999999998
    vertex 0.03999999999999758 0.6000000000001589 -0.11999999999999998
  endloop
endfacet
facet normal 3.599144913725653e-13 1.0 -0.0
  outer loop
    vertex 0.5600000000000113 0.5999999999999718 -0.11999999999999998
    vertex 0.03999999999999758 0.6000000000001589 0.0
    vertex 0.5600000000000113 0.5999999999999718 0.0
  endloop
endfacet
facet normal 0.9914448613738098 0.13052619222005724 -0.0
  outer loop
    vertex 0.5600000000000113 0.5999999999999718 -0.11999999999999998
    vertex 0.5613629669484486 0.5896472381958711 0.0
    vertex 0.5613629669484486 0.5896472381958711 -0.11999999999999998
  endloop
endfacet
facet normal 0.9914448613738098 0.13052619222005724 -0.0
  outer loop
    vertex 0.5613629669484486 0.5896472381958711 0.0
    vertex 0.5600000000000113 0.5999999999999718 -0.11999999999999998
    vertex 0.5600000000000113 0.5999999999999718 0.0
  endloop
endfacet
facet normal 0.9238795325112835 0.3826834323650976 -0.0
  outer loop
    vertex 0.5613629669484486 0.5896472381958711 -0.11999999999999998
    vertex 0.5653589838486338 0.5799999999999719 0.0
    vertex 0.5653589838486338 0.5799999999999719 -0.11999999999999998
  endloop
endfacet
facet normal 0.9238795325112835 0.3826834323650976 -0.0
  outer loop
    vertex 0.5653589838486338 0.5799999999999719 0.0
    vertex 0.5613629669484486 0.5896472381958711 -0.11999999999999998
    vertex 0.5613629669484486 0.5896472381958711 0.0
  endloop
endfacet
facet normal 0.7933533402912369 0.6087614290087183 -0.0
  outer loop
    vertex 0.5653589838486338 0.5799999999999719 -0.11999999999999998
    vertex 0.5717157287525494 0.5717157287525101 0.0
    vertex 0.5717157287525494 0.5717157287525101 -0.11999999999999998
  endloop
endfacet
facet normal 0.7933533402912369 0.6087614290087183 -0.0
  outer loop
    vertex 0.5717157287525494 0.5717157287525101 0.0
    vertex 0.5653589838486338 0.5799999999999719 -0.11999999999999998
    vertex 0.5653589838486338 0.5799999999999719 0.0
  endloop
endfacet
facet normal 0.6087614290087183 0.7933533402912369 -0.0
  outer loop
    vertex 0.5717157287525494 0.5717157287525101 0.0
    vertex 0.5800000000000112 0.5653589838485945 -0.11999999999999998
    vertex 0.5717157287525494 0.5717157287525101 -0.11999999999999998
  endloop
endfacet
facet normal 0.6087614290087183 0.7933533402912369 -0.0
  outer loop
    vertex 0.5800000000000112 0.5653589838485945 -0.11999999999999998
    vertex 0.5717157287525494 0.5717157287525101 0.0
    vertex 0.5800000000000112 0.5653589838485945 0.0
  endloop
endfacet
facet normal 0.3826834323650903 0.9238795325112865 -0.0
  outer loop
    vertex 0.5800000000000112 0.5653589838485945 0.0
    vertex 0.5896472381959104 0.5613629669484094 -0.11999999999999998
    vertex 0.5800000000000112 0.5653589838485945 -0.11999999999999998
  endloop
endfacet
facet normal 0.3826834323650903 0.9238795325112865 -0.0
  outer loop
    vertex 0.5896472381959104 0.5613629669484094 -0.11999999999999998
    vertex 0.5800000000000112 0.5653589838485945 0.0
    vertex 0.5896472381959104 0.5613629669484094 0.0
  endloop
endfacet
facet normal 0.13052619222004763 0.9914448613738109 -0.0
  outer loop
    vertex 0.5896472381959104 0.5613629669484094 0.0
    vertex 0.6000000000000112 0.5599999999999721 -0.11999999999999998
    vertex 0.5896472381959104 0.5613629669484094 -0.11999999999999998
  endloop
endfacet
facet normal 0.13052619222004763 0.9914448613738109 -0.0
  outer loop
    vertex 0.6000000000000112 0.5599999999999721 -0.11999999999999998
    vertex 0.5896472381959104 0.5613629669484094 0.0
    vertex 0.6000000000000112 0.5599999999999721 0.0
  endloop
endfacet
facet normal 0.0 0.0 -1.0
  outer loop
    vertex 0.010352761804098162 0.5613629669485959 0.0
    vertex 6.767919558114953e-17 0.03999999999999975 0.0
    vertex -2.7128077562110774e-15 0.5600000000001586 0.0
  endloop
endfacet
facet normal 0.0 0.0 -1.0
  outer loop
    vertex 6.767919558114953e-17 0.03999999999999975 0.0
    vertex 0.010352761804098162 0.5613629669485959 0.0
    vertex 0.010352761804100823 0.03863703305156246 0.0
  endloop
endfacet
facet normal 0.0 0.0 -1.0
  outer loop
    vertex 0.010352761804100823 0.03863703305156246 0.0
    vertex 0.010352761804098162 0.5613629669485959 0.0
    vertex 0.019999999999997402 0.5653589838487811 0.0
  endloop
endfacet
facet normal 0.0 0.0 -1.0
  outer loop
    vertex 0.010352761804100823 0.03863703305156246 0.0
    vertex 0.019999999999997402 0.5653589838487811 0.0
    vertex 0.01999999999999993 0.03464101615137729 0.0
  endloop
endfacet
facet normal 0.0 0.0 -1.0
  outer loop
    vertex 0.01999999999999993 0.03464101615137729 0.0
    vertex 0.019999999999997402 0.5653589838487811 0.0
    vertex 0.02828427124745939 0.5717157287526967 0.0
  endloop
endfacet
facet normal 0.0 0.0 -1.0
  outer loop
    vertex 0.01999999999999993 0.03464101615137729 0.0
    vertex 0.02828427124745939 0.5717157287526967 0.0
    vertex 0.02828427124746178 0.028284271247461672 0.0
  endloop
endfacet
facet normal 0.0 0.0 -1.0
  outer loop
    vertex 0.02828427124746178 0.028284271247461672 0.0
    vertex 0.02828427124745939 0.5717157287526967 0.0
    vertex 0.03464101615137508 0.5800000000001587 0.0
  endloop
endfacet
facet normal 0.0 0.0 -1.0
  outer loop
    vertex 0.02828427124746178 0.028284271247461672 0.0
    vertex 0.03464101615137508 0.5800000000001587 0.0
    vertex 0.034641016151377386 0.019999999999999813 0.0
  endloop
endfacet
facet normal 0.0 0.0 -1.0
  outer loop
    vertex 0.034641016151377386 0.019999999999999813 0.0
    vertex 0.03464101615137508 0.5800000000001587 0.0
    vertex 0.03863703305156031 0.589647238196058 0.0
  endloop
endfacet
facet normal 0.0 0.0 -1.0
  outer loop
    vertex 0.034641016151377386 0.019999999999999813 0.0
    vertex 0.03863703305156031 0.589647238196058 0.0
    vertex 0.03863703305156252 0.010352761804100703 0.0
  endloop
endfacet
facet normal 0.0 0.0 -1.0
  outer loop
    vertex 0.03863703305156252 0.010352761804100703 0.0
    vertex 0.03863703305156031 0.589647238196058 0.0
    vertex 0.03999999999999758 0.6000000000001589 0.0
  endloop
endfacet
facet normal 0.0 0.0 -1.0
  outer loop
    vertex 0.03863703305156252 0.010352761804100703 0.0
    vertex 0.03999999999999758 0.6000000000001589 0.0
    vertex 0.03999999999999977 -6.203926261605374e-17 0.0
  endloop
endfacet
facet normal 0.0 0.0 -1.0
  outer loop
    vertex 0.03999999999999977 -6.203926261605374e-17 0.0
    vertex 0.03999999999999758 0.6000000000001589 0.0
    vertex 0.5600000000000113 0.5999999999999718 0.0
  endloop
endfacet
facet normal 0.0 0.0 -1.0
  outer loop
    vertex 0.03999999999999977 -6.203926261605374e-17 0.0
    vertex 0.5600000000000113 0.5999999999999718 0.0
    vertex 0.5599999999999989 -1.522217907279355e-14 0.0
  endloop
endfacet
facet normal 0.0 0.0 -1.0
  outer loop
    vertex 0.5599999999999989 -1.522217907279355e-14 0.0
    vertex 0.5600000000000113 0.5999999999999718 0.0
    vertex 0.5613629669484397 0.010352761804088272 0.0
  endloop
endfacet
facet normal 0.0 0.0 -1.0
  outer loop
    vertex 0.5613629669484397 0.010352761804088272 0.0
    vertex 0.5600000000000113 0.5999999999999718 0.0
    vertex 0.5613629669484486 0.5896472381958711 0.0
  endloop
endfacet
facet normal 0.0 0.0 -1.0
  outer loop
    vertex 0.5613629669484397 0.010352761804088272 0.0
    vertex 0.5613629669484486 0.5896472381958711 0.0
    vertex 0.5653589838486289 0.019999999999989117 0.0
  endloop
endfacet
facet normal 0.0 0.0 -1.0
  outer loop
    vertex 0.5653589838486289 0.019999999999989117 0.0
    vertex 0.5613629669484486 0.5896472381958711 0.0
    vertex 0.5653589838486338 0.5799999999999719 0.0
  endloop
endfacet
facet normal 0.0 0.0 -1.0
  outer loop
    vertex 0.5653589838486289 0.019999999999989117 0.0
    vertex 0.5653589838486338 0.5799999999999719 0.0
    vertex 0.5717157287525488 0.02828427124745161 0.0
  endloop
endfacet
facet normal 0.0 0.0 -1.0
  outer loop
    vertex 0.5717157287525488 0.02828427124745161 0.0
    vertex 0.5653589838486338 0.5799999999999719 0.0
    vertex 0.5717157287525494 0.5717157287525101 0.0
  endloop
endfacet
facet normal 0.0 0.0 -1.0
  outer loop
    vertex 0.5717157287525488 0.02828427124745161 0.0
    vertex 0.5717157287525494 0.5717157287525101 0.0
    vertex 0.5800000000000152 0.03464101615136671 0.0
  endloop
endfacet
facet normal 0.0 0.0 -1.0
  outer loop
    vertex 0.5800000000000152 0.03464101615136671 0.0
    vertex 0.5717157287525494 0.5717157287525101 0.0
    vertex 0.5800000000000112 0.5653589838485945 0.0
  endloop
endfacet
facet normal 0.0 0.0 -1.0
  outer loop
    vertex 0.5800000000000152 0.03464101615136671 0.0
    vertex 0.5800000000000112 0.5653589838485945 0.0
    vertex 0.5896472381959104 0.5613629669484094 0.0
  endloop
endfacet
facet normal 0.0 0.0 -1.0
  outer loop
    vertex 0.5800000000000152 0.03464101615136671 0.0
    vertex 0.5896472381959104 0.5613629669484094 0.0
    vertex 0.5896472381959184 0.038637033051550244 0.0
  endloop
endfacet
facet normal 0.0 0.0 -1.0
  outer loop
    vertex 0.5896472381959184 0.038637033051550244 0.0
    vertex 0.5896472381959104 0.5613629669484094 0.0
    vertex 0.6000000000000112 0.5599999999999721 0.0
  endloop
endfacet
facet normal 0.0 0.0 -1.0
  outer loop
    vertex 0.5896472381959184 0.038637033051550244 0.0
    vertex 0.6000000000000112 0.5599999999999721 0.0
    vertex 0.6000000000000225 0.03999999999998489 0.0
  endloop
endfacet
endsolid Foundation Block
