solid Roof
facet normal 0.0 0.0 -1.0
  outer loop
    vertex 2.4 1.2 0.0
    vertex 0.0 0.0 0.0
    vertex 0.0 1.2 0.0
  endloop
endfacet
facet normal 0.0 0.0 -1.0
  outer loop
    vertex 0.0 0.0 0.0
    vertex 2.4 1.2 0.0
    vertex 2.4 0.0 0.0
  endloop
endfacet
facet normal 0.0 0.0 1.0
  outer loop
    vertex 2.4 0.0 0.12000000000000015
    vertex 0.0 1.2 0.12000000000000015
    vertex 0.0 0.0 0.12000000000000015
  endloop
endfacet
facet normal 0.0 0.0 1.0
  outer loop
    vertex 0.0 1.2 0.12000000000000015
    vertex 2.4 0.0 0.12000000000000015
    vertex 2.4 1.2 0.12000000000000015
  endloop
endfacet
facet normal -1.0 0.0 0.0
  outer loop
    vertex 0.0 1.2 0.12000000000000015
    vertex 0.0 0.0 0.0
    vertex 0.0 0.0 0.12000000000000015
  endloop
endfacet
facet normal -1.0 0.0 0.0
  outer loop
    vertex 0.0 0.0 0.0
    vertex 0.0 1.2 0.12000000000000015
    vertex 0.0 1.2 0.0
  endloop
endfacet
facet normal 1.0 0.0 0.0
  outer loop
    vertex 2.4 1.2 0.0
    vertex 2.4 0.0 0.12000000000000015
    vertex 2.4 0.0 0.0
  endloop
endfacet
facet normal 1.0 0.0 0.0
  outer loop
    vertex 2.4 0.0 0.12000000000000015
    vertex 2.4 1.2 0.0
    vertex 2.4 1.2 0.12000000000000015
  endloop
endfacet
facet normal -0.0 -1.0 -0.0
  outer loop
    vertex 2.4 0.0 0.12000000000000015
    vertex 0.0 0.0 0.0
    vertex 2.4 0.0 0.0
  endloop
endfacet
facet normal -0.0 -1.0 -0.0
  outer loop
    vertex 0.0 0.0 0.0
    vertex 2.4 0.0 0.12000000000000015
    vertex 0.0 0.0 0.12000000000000015
  endloop
endfacet
facet normal 0.0 1.0 0.0
  outer loop
    vertex 0.0 1.2 0.12000000000000015
    vertex 2.4 1.2 0.0
    vertex 0.0 1.2 0.0
  endloop
endfacet
facet normal 0.0 1.0 0.0
  outer loop
    vertex 2.4 1.2 0.0
    vertex 0.0 1.2 0.12000000000000015
    vertex 2.4 1.2 0.12000000000000015
  endloop
endfacet
endsolid Roof
