solid Vertical Support - 2m
facet normal 0.6087614290087212 0.7933533402912349 0.0
  outer loop
    vertex 0.060000000000000074 0.07464101615137744 2.0
    vertex 0.0682842712474619 0.0682842712474619 0.0
    vertex 0.060000000000000074 0.07464101615137744 0.0
  endloop
endfacet
facet normal 0.6087614290087212 0.7933533402912349 0.0
  outer loop
    vertex 0.0682842712474619 0.0682842712474619 0.0
    vertex 0.060000000000000074 0.07464101615137744 2.0
    vertex 0.0682842712474619 0.0682842712474619 2.0
  endloop
endfacet
facet normal -0.7933533402912354 -0.6087614290087207 -0.0
  outer loop
    vertex 0.005358983848622586 0.019999999999999962 2.0
    vertex 0.011715728752537955 0.011715728752538136 0.0
    vertex 0.011715728752537955 0.011715728752538136 2.0
  endloop
endfacet
facet normal -0.7933533402912354 -0.6087614290087207 -0.0
  outer loop
    vertex 0.011715728752537955 0.011715728752538136 0.0
    vertex 0.005358983848622586 0.019999999999999962 2.0
    vertex 0.005358983848622586 0.019999999999999962 0.0
  endloop
endfacet
facet normal 0.3826834323650893 -0.923879532511287 0.0
  outer loop
    vertex 0.060000000000000074 0.005358983848622405 2.0
    vertex 0.05035276180410093 0.0013629669484373152 0.0
    vertex 0.060000000000000074 0.005358983848622405 0.0
  endloop
endfacet
facet normal 0.3826834323650893 -0.923879532511287 0.0
  outer loop
    vertex 0.05035276180410093 0.0013629669484373152 0.0
    vertex 0.060000000000000074 0.005358983848622405 2.0
    vertex 0.05035276180410093 0.0013629669484373152 2.0
  endloop
endfacet
facet normal 0.0 0.0 1.0
  outer loop
    vertex 0.0013629669484373152 0.029647238195899105 2.0
    vertex 0.0013629669484373152 0.05035276180410075 2.0
    vertex 0.0 0.039999999999999925 2.0
  endloop
endfacet
facet normal 0.0 0.0 1.0
  outer loop
    vertex 0.0013629669484373152 0.05035276180410075 2.0
    vertex 0.0013629669484373152 0.029647238195899105 2.0
    vertex 0.005358983848622586 0.019999999999999962 2.0
  endloop
endfacet
facet normal 0.0 0.0 1.0
  outer loop
    vertex 0.0013629669484373152 0.05035276180410075 2.0
    vertex 0.005358983848622586 0.019999999999999962 2.0
    vertex 0.005358983848622586 0.060000000000000074 2.0
  endloop
endfacet
facet normal 0.0 0.0 1.0
  outer loop
    vertex 0.005358983848622586 0.060000000000000074 2.0
    vertex 0.005358983848622586 0.019999999999999962 2.0
    vertex 0.011715728752537955 0.011715728752538136 2.0
  endloop
endfacet
facet normal 0.0 0.0 1.0
  outer loop
    vertex 0.005358983848622586 0.060000000000000074 2.0
    vertex 0.011715728752537955 0.011715728752538136 2.0
    vertex 0.011715728752537955 0.0682842712474619 2.0
  endloop
endfacet
facet normal 0.0 0.0 1.0
  outer loop
    vertex 0.011715728752537955 0.0682842712474619 2.0
    vertex 0.011715728752537955 0.011715728752538136 2.0
    vertex 0.019999999999999782 0.005358983848622405 2.0
  endloop
endfacet
facet normal 0.0 0.0 1.0
  outer loop
    vertex 0.011715728752537955 0.0682842712474619 2.0
    vertex 0.019999999999999782 0.005358983848622405 2.0
    vertex 0.019999999999999782 0.07464101615137744 2.0
  endloop
endfacet
facet normal 0.0 0.0 1.0
  outer loop
    vertex 0.019999999999999782 0.07464101615137744 2.0
    vertex 0.019999999999999782 0.005358983848622405 2.0
    vertex 0.029647238195899286 0.0013629669484373152 2.0
  endloop
endfacet
facet normal 0.0 0.0 1.0
  outer loop
    vertex 0.019999999999999782 0.07464101615137744 2.0
    vertex 0.029647238195899286 0.0013629669484373152 2.0
    vertex 0.029647238195899286 0.07863703305156272 2.0
  endloop
endfacet
facet normal 0.0 0.0 1.0
  outer loop
    vertex 0.029647238195899286 0.07863703305156272 2.0
    vertex 0.029647238195899286 0.0013629669484373152 2.0
    vertex 0.039999999999999925 0.0 2.0
  endloop
endfacet
facet normal 0.0 0.0 1.0
  outer loop
    vertex 0.029647238195899286 0.07863703305156272 2.0
    vertex 0.039999999999999925 0.0 2.0
    vertex 0.039999999999999925 0.08000000000000003 2.0
  endloop
endfacet
facet normal 0.0 0.0 1.0
  outer loop
    vertex 0.039999999999999925 0.08000000000000003 2.0
    vertex 0.039999999999999925 0.0 2.0
    vertex 0.05035276180410093 0.0013629669484373152 2.0
  endloop
endfacet
facet normal 0.0 0.0 1.0
  outer loop
    vertex 0.039999999999999925 0.08000000000000003 2.0
    vertex 0.05035276180410093 0.0013629669484373152 2.0
    vertex 0.05035276180410093 0.07863703305156272 2.0
  endloop
endfacet
facet normal 0.0 0.0 1.0
  outer loop
    vertex 0.05035276180410093 0.07863703305156272 2.0
    vertex 0.05035276180410093 0.0013629669484373152 2.0
    vertex 0.060000000000000074 0.005358983848622405 2.0
  endloop
endfacet
facet normal 0.0 0.0 1.0
  outer loop
    vertex 0.05035276180410093 0.07863703305156272 2.0
    vertex 0.060000000000000074 0.005358983848622405 2.0
    vertex 0.060000000000000074 0.07464101615137744 2.0
  endloop
endfacet
facet normal 0.0 0.0 1.0
  outer loop
    vertex 0.060000000000000074 0.07464101615137744 2.0
    vertex 0.060000000000000074 0.005358983848622405 2.0
    vertex 0.0682842712474619 0.011715728752538136 2.0
  endloop
endfacet
facet normal 0.0 0.0 1.0
  outer loop
    vertex 0.060000000000000074 0.07464101615137744 2.0
    vertex 0.0682842712474619 0.011715728752538136 2.0
    vertex 0.0682842712474619 0.0682842712474619 2.0
  endloop
endfacet
facet normal 0.0 0.0 1.0
  outer loop
    vertex 0.0682842712474619 0.0682842712474619 2.0
    vertex 0.0682842712474619 0.011715728752538136 2.0
    vertex 0.07464101615137762 0.019999999999999962 2.0
  endloop
endfacet
facet normal 0.0 0.0 1.0
  outer loop
    vertex 0.0682842712474619 0.0682842712474619 2.0
    vertex 0.07464101615137762 0.019999999999999962 2.0
    vertex 0.07464101615137762 0.059999999999999894 2.0
  endloop
endfacet
facet normal 0.0 0.0 1.0
  outer loop
    vertex 0.07464101615137762 0.059999999999999894 2.0
    vertex 0.07464101615137762 0.019999999999999962 2.0
    vertex 0.07863703305156254 0.029647238195899105 2.0
  endloop
endfacet
facet normal 0.0 0.0 1.0
  outer loop
    vertex 0.07464101615137762 0.059999999999999894 2.0
    vertex 0.07863703305156254 0.029647238195899105 2.0
    vertex 0.07863703305156254 0.05035276180410075 2.0
  endloop
endfacet
facet normal 0.0 0.0 1.0
  outer loop
    vertex 0.07863703305156254 0.05035276180410075 2.0
    vertex 0.07863703305156254 0.029647238195899105 2.0
    vertex 0.07999999999999985 0.039999999999999925 2.0
  endloop
endfacet
facet normal -0.38268343236508984 0.9238795325112867 0.0
  outer loop
    vertex 0.019999999999999782 0.07464101615137744 2.0
    vertex 0.029647238195899286 0.07863703305156272 0.0
    vertex 0.019999999999999782 0.07464101615137744 0.0
  endloop
endfacet
facet normal -0.38268343236508984 0.9238795325112867 0.0
  outer loop
    vertex 0.029647238195899286 0.07863703305156272 0.0
    vertex 0.019999999999999782 0.07464101615137744 2.0
    vertex 0.029647238195899286 0.07863703305156272 2.0
  endloop
endfacet
facet normal -0.13052619222005188 -0.9914448613738104 -0.0
  outer loop
    vertex 0.039999999999999925 0.0 2.0
    vertex 0.029647238195899286 0.0013629669484373152 0.0
    vertex 0.039999999999999925 0.0 0.0
  endloop
endfacet
facet normal -0.13052619222005188 -0.9914448613738104 -0.0
  outer loop
    vertex 0.029647238195899286 0.0013629669484373152 0.0
    vertex 0.039999999999999925 0.0 2.0
    vertex 0.029647238195899286 0.0013629669484373152 2.0
  endloop
endfacet
facet normal 0.793353340291234 0.6087614290087223 0.0
  outer loop
    vertex 0.0682842712474619 0.0682842712474619 0.0
    vertex 0.07464101615137762 0.059999999999999894 2.0
    vertex 0.07464101615137762 0.059999999999999894 0.0
  endloop
endfacet
facet normal 0.793353340291234 0.6087614290087223 0.0
  outer loop
    vertex 0.07464101615137762 0.059999999999999894 2.0
    vertex 0.0682842712474619 0.0682842712474619 0.0
    vertex 0.0682842712474619 0.0682842712474619 2.0
  endloop
endfacet
facet normal -0.7933533402912354 0.6087614290087207 0.0
  outer loop
    vertex 0.011715728752537955 0.0682842712474619 2.0
    vertex 0.005358983848622586 0.060000000000000074 0.0
    vertex 0.005358983848622586 0.060000000000000074 2.0
  endloop
endfacet
facet normal -0.7933533402912354 0.6087614290087207 0.0
  outer loop
    vertex 0.005358983848622586 0.060000000000000074 0.0
    vertex 0.011715728752537955 0.0682842712474619 2.0
    vertex 0.011715728752537955 0.0682842712474619 0.0
  endloop
endfacet
facet normal 0.6087614290087198 -0.7933533402912359 0.0
  outer loop
    vertex 0.0682842712474619 0.011715728752538136 2.0
    vertex 0.060000000000000074 0.005358983848622405 0.0
    vertex 0.0682842712474619 0.011715728752538136 0.0
  endloop
endfacet
facet normal 0.6087614290087198 -0.7933533402912359 0.0
  outer loop
    vertex 0.060000000000000074 0.005358983848622405 0.0
    vertex 0.0682842712474619 0.011715728752538136 2.0
    vertex 0.060000000000000074 0.005358983848622405 2.0
  endloop
endfacet
facet normal 0.9914448613738106 -0.13052619222005132 0.0
  outer loop
    vertex 0.07999999999999985 0.039999999999999925 0.0
    vertex 0.07863703305156254 0.029647238195899105 2.0
    vertex 0.07863703305156254 0.029647238195899105 0.0
  endloop
endfacet
facet normal 0.9914448613738106 -0.13052619222005132 0.0
  outer loop
    vertex 0.07863703305156254 0.029647238195899105 2.0
    vertex 0.07999999999999985 0.039999999999999925 0.0
    vertex 0.07999999999999985 0.039999999999999925 2.0
  endloop
endfacet
facet normal 0.13052619222005188 -0.9914448613738104 0.0
  outer loop
    vertex 0.05035276180410093 0.0013629669484373152 2.0
    vertex 0.039999999999999925 0.0 0.0
    vertex 0.05035276180410093 0.0013629669484373152 0.0
  endloop
endfacet
facet normal 0.13052619222005188 -0.9914448613738104 0.0
  outer loop
    vertex 0.039999999999999925 0.0 0.0
    vertex 0.05035276180410093 0.0013629669484373152 2.0
    vertex 0.039999999999999925 0.0 2.0
  endloop
endfacet
facet normal -0.3826834323650906 -0.9238795325112866 -0.0
  outer loop
    vertex 0.029647238195899286 0.0013629669484373152 2.0
    vertex 0.019999999999999782 0.005358983848622405 0.0
    vertex 0.029647238195899286 0.0013629669484373152 0.0
  endloop
endfacet
facet normal -0.3826834323650906 -0.9238795325112866 -0.0
  outer loop
    vertex 0.019999999999999782 0.005358983848622405 0.0
    vertex 0.029647238195899286 0.0013629669484373152 2.0
    vertex 0.019999999999999782 0.005358983848622405 2.0
  endloop
endfacet
facet normal -0.9914448613738104 0.13052619222005157 0.0
  outer loop
    vertex 0.0013629669484373152 0.05035276180410075 2.0
    vertex 0.0 0.039999999999999925 0.0
    vertex 0.0 0.039999999999999925 2.0
  endloop
endfacet
facet normal -0.9914448613738104 0.13052619222005157 0.0
  outer loop
    vertex 0.0 0.039999999999999925 0.0
    vertex 0.0013629669484373152 0.05035276180410075 2.0
    vertex 0.0013629669484373152 0.05035276180410075 0.0
  endloop
endfacet
facet normal -0.6087614290087201 0.7933533402912356 0.0
  outer loop
    vertex 0.011715728752537955 0.0682842712474619 2.0
    vertex 0.019999999999999782 0.07464101615137744 0.0
    vertex 0.011715728752537955 0.0682842712474619 0.0
  endloop
endfacet
facet normal -0.6087614290087201 0.7933533402912356 0.0
  outer loop
    vertex 0.019999999999999782 0.07464101615137744 0.0
    vertex 0.011715728752537955 0.0682842712474619 2.0
    vertex 0.019999999999999782 0.07464101615137744 2.0
  endloop
endfacet
facet normal -0.9238795325112866 0.38268343236509045 0.0
  outer loop
    vertex 0.005358983848622586 0.060000000000000074 2.0
    vertex 0.0013629669484373152 0.05035276180410075 0.0
    vertex 0.0013629669484373152 0.05035276180410075 2.0
  endloop
endfacet
facet normal -0.9238795325112866 0.38268343236509045 0.0
  outer loop
    vertex 0.0013629669484373152 0.05035276180410075 0.0
    vertex 0.005358983848622586 0.060000000000000074 2.0
    vertex 0.005358983848622586 0.060000000000000074 0.0
  endloop
endfacet
facet normal 0.0 0.0 -1.0
  outer loop
    vertex 0.0013629669484373152 0.05035276180410075 0.0
    vertex 0.0013629669484373152 0.029647238195899105 0.0
    vertex 0.0 0.039999999999999925 0.0
  endloop
endfacet
facet normal 0.0 0.0 -1.0
  outer loop
    vertex 0.0013629669484373152 0.029647238195899105 0.0
    vertex 0.0013629669484373152 0.05035276180410075 0.0
    vertex 0.005358983848622586 0.060000000000000074 0.0
  endloop
endfacet
facet normal 0.0 0.0 -1.0
  outer loop
    vertex 0.0013629669484373152 0.029647238195899105 0.0
    vertex 0.005358983848622586 0.060000000000000074 0.0
    vertex 0.005358983848622586 0.019999999999999962 0.0
  endloop
endfacet
facet normal 0.0 0.0 -1.0
  outer loop
    vertex 0.005358983848622586 0.019999999999999962 0.0
    vertex 0.005358983848622586 0.060000000000000074 0.0
    vertex 0.011715728752537955 0.0682842712474619 0.0
  endloop
endfacet
facet normal 0.0 0.0 -1.0
  outer loop
    vertex 0.005358983848622586 0.019999999999999962 0.0
    vertex 0.011715728752537955 0.0682842712474619 0.0
    vertex 0.011715728752537955 0.011715728752538136 0.0
  endloop
endfacet
facet normal 0.0 0.0 -1.0
  outer loop
    vertex 0.011715728752537955 0.011715728752538136 0.0
    vertex 0.011715728752537955 0.0682842712474619 0.0
    vertex 0.019999999999999782 0.07464101615137744 0.0
  endloop
endfacet
facet normal 0.0 0.0 -1.0
  outer loop
    vertex 0.011715728752537955 0.011715728752538136 0.0
    vertex 0.019999999999999782 0.07464101615137744 0.0
    vertex 0.019999999999999782 0.005358983848622405 0.0
  endloop
endfacet
facet normal 0.0 0.0 -1.0
  outer loop
    vertex 0.019999999999999782 0.005358983848622405 0.0
    vertex 0.019999999999999782 0.07464101615137744 0.0
    vertex 0.029647238195899286 0.07863703305156272 0.0
  endloop
endfacet
facet normal 0.0 0.0 -1.0
  outer loop
    vertex 0.019999999999999782 0.005358983848622405 0.0
    vertex 0.029647238195899286 0.07863703305156272 0.0
    vertex 0.029647238195899286 0.0013629669484373152 0.0
  endloop
endfacet
facet normal 0.0 0.0 -1.0
  outer loop
    vertex 0.029647238195899286 0.0013629669484373152 0.0
    vertex 0.029647238195899286 0.07863703305156272 0.0
    vertex 0.039999999999999925 0.08000000000000003 0.0
  endloop
endfacet
facet normal 0.0 0.0 -1.0
  outer loop
    vertex 0.029647238195899286 0.0013629669484373152 0.0
    vertex 0.039999999999999925 0.08000000000000003 0.0
    vertex 0.039999999999999925 0.0 0.0
  endloop
endfacet
facet normal 0.0 0.0 -1.0
  outer loop
    vertex 0.039999999999999925 0.0 0.0
    vertex 0.039999999999999925 0.08000000000000003 0.0
    vertex 0.05035276180410093 0.07863703305156272 0.0
  endloop
endfacet
facet normal 0.0 0.0 -1.0
  outer loop
    vertex 0.039999999999999925 0.0 0.0
    vertex 0.05035276180410093 0.07863703305156272 0.0
    vertex 0.05035276180410093 0.0013629669484373152 0.0
  endloop
endfacet
facet normal 0.0 0.0 -1.0
  outer loop
    vertex 0.05035276180410093 0.0013629669484373152 0.0
    vertex 0.05035276180410093 0.07863703305156272 0.0
    vertex 0.060000000000000074 0.07464101615137744 0.0
  endloop
endfacet
facet normal 0.0 0.0 -1.0
  outer loop
    vertex 0.05035276180410093 0.0013629669484373152 0.0
    vertex 0.060000000000000074 0.07464101615137744 0.0
    vertex 0.060000000000000074 0.005358983848622405 0.0
  endloop
endfacet
facet normal 0.0 0.0 -1.0
  outer loop
    vertex 0.060000000000000074 0.005358983848622405 0.0
    vertex 0.060000000000000074 0.07464101615137744 0.0
    vertex 0.0682842712474619 0.0682842712474619 0.0
  endloop
endfacet
facet normal 0.0 0.0 -1.0
  outer loop
    vertex 0.060000000000000074 0.005358983848622405 0.0
    vertex 0.0682842712474619 0.0682842712474619 0.0
    vertex 0.0682842712474619 0.011715728752538136 0.0
  endloop
endfacet
facet normal 0.0 0.0 -1.0
  outer loop
    vertex 0.0682842712474619 0.011715728752538136 0.0
    vertex 0.0682842712474619 0.0682842712474619 0.0
    vertex 0.07464101615137762 0.059999999999999894 0.0
  endloop
endfacet
facet normal 0.0 0.0 -1.0
  outer loop
    vertex 0.0682842712474619 0.011715728752538136 0.0
    vertex 0.07464101615137762 0.059999999999999894 0.0
    vertex 0.07464101615137762 0.019999999999999962 0.0
  endloop
endfacet
facet normal 0.0 0.0 -1.0
  outer loop
    vertex 0.07464101615137762 0.019999999999999962 0.0
    vertex 0.07464101615137762 0.059999999999999894 0.0
    vertex 0.07863703305156254 0.05035276180410075 0.0
  endloop
endfacet
facet normal 0.0 0.0 -1.0
  outer loop
    vertex 0.07464101615137762 0.019999999999999962 0.0
    vertex 0.07863703305156254 0.05035276180410075 0.0
    vertex 0.07863703305156254 0.029647238195899105 0.0
  endloop
endfacet
facet normal 0.0 0.0 -1.0
  outer loop
    vertex 0.07863703305156254 0.029647238195899105 0.0
    vertex 0.07863703305156254 0.05035276180410075 0.0
    vertex 0.07999999999999985 0.039999999999999925 0.0
  endloop
endfacet
facet normal 0.3826834323650887 0.9238795325112873 0.0
  outer loop
    vertex 0.05035276180410093 0.07863703305156272 2.0
    vertex 0.060000000000000074 0.07464101615137744 0.0
    vertex 0.05035276180410093 0.07863703305156272 0.0
  endloop
endfacet
facet normal 0.3826834323650887 0.9238795325112873 0.0
  outer loop
    vertex 0.060000000000000074 0.07464101615137744 0.0
    vertex 0.05035276180410093 0.07863703305156272 2.0
    vertex 0.060000000000000074 0.07464101615137744 2.0
  endloop
endfacet
facet normal -0.9914448613738104 -0.13052619222005202 -0.0
  outer loop
    vertex 0.0 0.039999999999999925 2.0
    vertex 0.0013629669484373152 0.029647238195899105 0.0
    vertex 0.0013629669484373152 0.029647238195899105 2.0
  endloop
endfacet
facet normal -0.9914448613738104 -0.13052619222005202 -0.0
  outer loop
    vertex 0.0013629669484373152 0.029647238195899105 0.0
    vertex 0.0 0.039999999999999925 2.0
    vertex 0.0 0.039999999999999925 0.0
  endloop
endfacet
facet normal 0.9238795325112852 -0.3826834323650935 0.0
  outer loop
    vertex 0.07863703305156254 0.029647238195899105 0.0
    vertex 0.07464101615137762 0.019999999999999962 2.0
    vertex 0.07464101615137762 0.019999999999999962 0.0
  endloop
endfacet
facet normal 0.9238795325112852 -0.3826834323650935 0.0
  outer loop
    vertex 0.07464101615137762 0.019999999999999962 2.0
    vertex 0.07863703305156254 0.029647238195899105 0.0
    vertex 0.07863703305156254 0.029647238195899105 2.0
  endloop
endfacet
facet normal 0.7933533402912349 -0.6087614290087212 0.0
  outer loop
    vertex 0.07464101615137762 0.019999999999999962 0.0
    vertex 0.0682842712474619 0.011715728752538136 2.0
    vertex 0.0682842712474619 0.011715728752538136 0.0
  endloop
endfacet
facet normal 0.7933533402912349 -0.6087614290087212 0.0
  outer loop
    vertex 0.0682842712474619 0.011715728752538136 2.0
    vertex 0.07464101615137762 0.019999999999999962 0.0
    vertex 0.07464101615137762 0.019999999999999962 2.0
  endloop
endfacet
facet normal -0.6087614290087212 -0.7933533402912349 -0.0
  outer loop
    vertex 0.019999999999999782 0.005358983848622405 2.0
    vertex 0.011715728752537955 0.011715728752538136 0.0
    vertex 0.019999999999999782 0.005358983848622405 0.0
  endloop
endfacet
facet normal -0.6087614290087212 -0.7933533402912349 -0.0
  outer loop
    vertex 0.011715728752537955 0.011715728752538136 0.0
    vertex 0.019999999999999782 0.005358983848622405 2.0
    vertex 0.011715728752537955 0.011715728752538136 2.0
  endloop
endfacet
facet normal 0.9914448613738104 0.13052619222005188 0.0
  outer loop
    vertex 0.07863703305156254 0.05035276180410075 0.0
    vertex 0.07999999999999985 0.039999999999999925 2.0
    vertex 0.07999999999999985 0.039999999999999925 0.0
  endloop
endfacet
facet normal 0.9914448613738104 0.13052619222005188 0.0
  outer loop
    vertex 0.07999999999999985 0.039999999999999925 2.0
    vertex 0.07863703305156254 0.05035276180410075 0.0
    vertex 0.07863703305156254 0.05035276180410075 2.0
  endloop
endfacet
facet normal -0.13052619222005188 0.9914448613738104 0.0
  outer loop
    vertex 0.029647238195899286 0.07863703305156272 2.0
    vertex 0.039999999999999925 0.08000000000000003 0.0
    vertex 0.029647238195899286 0.07863703305156272 0.0
  endloop
endfacet
facet normal -0.13052619222005188 0.9914448613738104 0.0
  outer loop
    vertex 0.039999999999999925 0.08000000000000003 0.0
    vertex 0.029647238195899286 0.07863703305156272 2.0
    vertex 0.039999999999999925 0.08000000000000003 2.0
  endloop
endfacet
facet normal 0.13052619222005188 0.9914448613738104 0.0
  outer loop
    vertex 0.039999999999999925 0.08000000000000003 2.0
    vertex 0.05035276180410093 0.07863703305156272 0.0
    vertex 0.039999999999999925 0.08000000000000003 0.0
  endloop
endfacet
facet normal 0.13052619222005188 0.9914448613738104 0.0
  outer loop
    vertex 0.05035276180410093 0.07863703305156272 0.0
    vertex 0.039999999999999925 0.08000000000000003 2.0
    vertex 0.05035276180410093 0.07863703305156272 2.0
  endloop
endfacet
facet normal -0.9238795325112872 -0.38268343236508917 -0.0
  outer loop
    vertex 0.0013629669484373152 0.029647238195899105 2.0
    vertex 0.005358983848622586 0.019999999999999962 0.0
    vertex 0.005358983848622586 0.019999999999999962 2.0
  endloop
endfacet
facet normal -0.9238795325112872 -0.38268343236508917 -0.0
  outer loop
    vertex 0.005358983848622586 0.019999999999999962 0.0
    vertex 0.0013629669484373152 0.029647238195899105 2.0
    vertex 0.0013629669484373152 0.029647238195899105 0.0
  endloop
endfacet
facet normal 0.923879532511287 0.3826834323650895 0.0
  outer loop
    vertex 0.07464101615137762 0.059999999999999894 0.0
    vertex 0.07863703305156254 0.05035276180410075 2.0
    vertex 0.07863703305156254 0.05035276180410075 0.0
  endloop
endfacet
facet normal 0.923879532511287 0.3826834323650895 0.0
  outer loop
    vertex 0.07863703305156254 0.05035276180410075 2.0
    vertex 0.07464101615137762 0.059999999999999894 0.0
    vertex 0.07464101615137762 0.059999999999999894 2.0
  endloop
endfacet
endsolid Vertical Support - 2m
