solid Vertical Support Topper
facet normal 1.0 0.0 0.0
  outer loop
    vertex 0.36000000000000043 0.4800000000000006 0.0
    vertex 0.36000000000000043 0.36000000000000043 0.11999999999999997
    vertex 0.36000000000000043 0.36000000000000043 0.0
  endloop
endfacet
facet normal 1.0 0.0 0.0
  outer loop
    vertex 0.36000000000000043 0.36000000000000043 0.11999999999999997
    vertex 0.36000000000000043 0.4800000000000006 0.0
    vertex 0.36000000000000043 0.4800000000000006 0.11999999999999997
  endloop
endfacet
facet normal 0.0 -1.0 0.0
  outer loop
    vertex 0.12000000000000015 0.12000000000000015 0.11999999999999998
    vertex 0.0 0.12000000000000015 0.0
    vertex 0.12000000000000015 0.12000000000000015 0.0
  endloop
endfacet
facet normal 0.0 -1.0 0.0
  outer loop
    vertex 0.0 0.12000000000000015 0.0
    vertex 0.12000000000000015 0.12000000000000015 0.11999999999999998
    vertex 0.0 0.12000000000000015 0.11999999999999998
  endloop
endfacet
facet normal 1.0 0.0 0.0
  outer loop
    vertex 0.36000000000000043 0.12000000000000015 0.0
    vertex 0.36000000000000043 0.0 0.11999999999999997
    vertex 0.36000000000000043 0.0 0.0
  endloop
endfacet
facet normal 1.0 0.0 0.0
  outer loop
    vertex 0.36000000000000043 0.0 0.11999999999999997
    vertex 0.36000000000000043 0.12000000000000015 0.0
    vertex 0.36000000000000043 0.12000000000000015 0.11999999999999997
  endloop
endfacet
facet normal 0.0 0.0 -1.0
  outer loop
    vertex 0.36000000000000043 0.36000000000000043 0.0
    vertex 0.12000000000000015 0.12000000000000015 0.0
    vertex 0.12000000000000015 0.36000000000000043 0.0
  endloop
endfacet
facet normal 0.0 0.0 -1.0
  outer loop
    vertex 0.12000000000000015 0.12000000000000015 0.0
    vertex 0.36000000000000043 0.36000000000000043 0.0
    vertex 0.36000000000000043 0.12000000000000015 0.0
  endloop
endfacet
facet normal 0.0 -1.0 0.0
  outer loop
    vertex 0.36000000000000043 0.12000000000000015 0.11999999999999997
    vertex 0.12000000000000015 0.12000000000000015 0.0
    vertex 0.36000000000000043 0.12000000000000015 0.0
  endloop
endfacet
facet normal 0.0 -1.0 0.0
  outer loop
    vertex 0.12000000000000015 0.12000000000000015 0.0
    vertex 0.36000000000000043 0.12000000000000015 0.11999999999999997
    vertex 0.12000000000000015 0.12000000000000015 0.11999999999999998
  endloop
endfacet
facet normal 0.0 -1.0 0.0
  outer loop
    vertex 0.4800000000000006 0.36000000000000043 0.11999999999999997
    vertex 0.36000000000000043 0.36000000000000043 0.0
    vertex 0.4800000000000006 0.36000000000000043 0.0
  endloop
endfacet
facet normal 0.0 -1.0 0.0
  outer loop
    vertex 0.36000000000000043 0.36000000000000043 0.0
    vertex 0.4800000000000006 0.36000000000000043 0.11999999999999997
    vertex 0.36000000000000043 0.36000000000000043 0.11999999999999997
  endloop
endfacet
facet normal -1.0 0.0 0.0
  outer loop
    vertex 0.12000000000000015 0.4800000000000006 0.11999999999999997
    vertex 0.12000000000000015 0.36000000000000043 0.0
    vertex 0.12000000000000015 0.36000000000000043 0.11999999999999998
  endloop
endfacet
facet normal -1.0 0.0 0.0
  outer loop
    vertex 0.12000000000000015 0.36000000000000043 0.0
    vertex 0.12000000000000015 0.4800000000000006 0.11999999999999997
    vertex 0.12000000000000015 0.4800000000000006 0.0
  endloop
endfacet
facet normal 0.0 0.0 -1.0
  outer loop
    vertex 0.36000000000000043 0.12000000000000015 0.0
    vertex 0.12000000000000015 0.0 0.0
    vertex 0.12000000000000015 0.12000000000000015 0.0
  endloop
endfacet
facet normal 0.0 0.0 -1.0
  outer loop
    vertex 0.12000000000000015 0.0 0.0
    vertex 0.36000000000000043 0.12000000000000015 0.0
    vertex 0.36000000000000043 0.0 0.0
  endloop
endfacet
facet normal 1.0 0.0 0.0
  outer loop
    vertex 0.36000000000000043 0.36000000000000043 0.0
    vertex 0.36000000000000043 0.12000000000000015 0.11999999999999997
    vertex 0.36000000000000043 0.12000000000000015 0.0
  endloop
endfacet
facet normal 1.0 0.0 0.0
  outer loop
    vertex 0.36000000000000043 0.12000000000000015 0.11999999999999997
    vertex 0.36000000000000043 0.36000000000000043 0.0
    vertex 0.36000000000000043 0.36000000000000043 0.11999999999999997
  endloop
endfacet
facet normal 0.0 0.0 -1.0
  outer loop
    vertex 0.36000000000000043 0.4800000000000006 0.0
    vertex 0.12000000000000015 0.36000000000000043 0.0
    vertex 0.12000000000000015 0.4800000000000006 0.0
  endloop
endfacet
facet normal 0.0 0.0 -1.0
  outer loop
    vertex 0.12000000000000015 0.36000000000000043 0.0
    vertex 0.36000000000000043 0.4800000000000006 0.0
    vertex 0.36000000000000043 0.36000000000000043 0.0
  endloop
endfacet
facet normal -1.0 0.0 0.0
  outer loop
    vertex 0.12000000000000015 0.12000000000000015 0.11999999999999998
    vertex 0.12000000000000015 0.16267949192431172 0.07000000000000008
    vertex 0.12000000000000015 0.12000000000000015 0.0
  endloop
endfacet
facet normal -1.0 0.0 0.0
  outer loop
    vertex 0.12000000000000015 0.16267949192431172 0.07000000000000008
    vertex 0.12000000000000015 0.12000000000000015 0.11999999999999998
    vertex 0.12000000000000015 0.16585786437626904 0.07414213562373105
  endloop
endfacet
facet normal -1.0 0.0 0.0
  outer loop
    vertex 0.12000000000000015 0.16585786437626904 0.07414213562373105
    vertex 0.12000000000000015 0.12000000000000015 0.11999999999999998
    vertex 0.12000000000000015 0.17000000000000032 0.0773205080756889
  endloop
endfacet
facet normal -1.0 0.0 0.0
  outer loop
    vertex 0.12000000000000015 0.17000000000000032 0.0773205080756889
    vertex 0.12000000000000015 0.12000000000000015 0.11999999999999998
    vertex 0.12000000000000015 0.17482361909795024 0.07931851652578151
  endloop
endfacet
facet normal -1.0 0.0 0.0
  outer loop
    vertex 0.12000000000000015 0.17482361909795024 0.07931851652578151
    vertex 0.12000000000000015 0.12000000000000015 0.11999999999999998
    vertex 0.12000000000000015 0.36000000000000043 0.11999999999999998
  endloop
endfacet
facet normal -1.0 0.0 0.0
  outer loop
    vertex 0.12000000000000015 0.12000000000000015 0.0
    vertex 0.12000000000000015 0.16267949192431172 0.07000000000000008
    vertex 0.12000000000000015 0.1606814834742191 0.06517638090205045
  endloop
endfacet
facet normal -1.0 0.0 0.0
  outer loop
    vertex 0.12000000000000015 0.12000000000000015 0.0
    vertex 0.12000000000000015 0.1606814834742191 0.06517638090205045
    vertex 0.12000000000000015 0.16000000000000042 0.05999999999999999
  endloop
endfacet
facet normal -1.0 0.0 0.0
  outer loop
    vertex 0.12000000000000015 0.17482361909795024 0.07931851652578151
    vertex 0.12000000000000015 0.36000000000000043 0.11999999999999998
    vertex 0.12000000000000015 0.18000000000000022 0.08000000000000014
  endloop
endfacet
facet normal -1.0 0.0 0.0
  outer loop
    vertex 0.12000000000000015 0.18000000000000022 0.08000000000000014
    vertex 0.12000000000000015 0.36000000000000043 0.11999999999999998
    vertex 0.12000000000000015 0.1851763809020509 0.0793185165257815
  endloop
endfacet
facet normal -1.0 0.0 0.0
  outer loop
    vertex 0.12000000000000015 0.1851763809020509 0.0793185165257815
    vertex 0.12000000000000015 0.36000000000000043 0.11999999999999998
    vertex 0.12000000000000015 0.19000000000000083 0.0773205080756889
  endloop
endfacet
facet normal -1.0 0.0 0.0
  outer loop
    vertex 0.12000000000000015 0.19000000000000083 0.0773205080756889
    vertex 0.12000000000000015 0.36000000000000043 0.11999999999999998
    vertex 0.12000000000000015 0.1941421356237314 0.07414213562373104
  endloop
endfacet
facet normal -1.0 0.0 0.0
  outer loop
    vertex 0.12000000000000015 0.1941421356237314 0.07414213562373104
    vertex 0.12000000000000015 0.36000000000000043 0.11999999999999998
    vertex 0.12000000000000015 0.289647238195899 0.09863703305156271
  endloop
endfacet
facet normal -1.0 0.0 0.0
  outer loop
    vertex 0.12000000000000015 0.1941421356237314 0.07414213562373104
    vertex 0.12000000000000015 0.289647238195899 0.09863703305156271
    vertex 0.12000000000000015 0.19732050807568943 0.07000000000000006
  endloop
endfacet
facet normal -1.0 0.0 0.0
  outer loop
    vertex 0.12000000000000015 0.19732050807568943 0.07000000000000006
    vertex 0.12000000000000015 0.289647238195899 0.09863703305156271
    vertex 0.12000000000000015 0.2348236190979496 0.07931851652578151
  endloop
endfacet
facet normal -1.0 0.0 0.0
  outer loop
    vertex 0.12000000000000015 0.19732050807568943 0.07000000000000006
    vertex 0.12000000000000015 0.2348236190979496 0.07931851652578151
    vertex 0.12000000000000015 0.19931851652578206 0.06517638090205044
  endloop
endfacet
facet normal -1.0 0.0 0.0
  outer loop
    vertex 0.12000000000000015 0.19931851652578206 0.06517638090205044
    vertex 0.12000000000000015 0.2348236190979496 0.07931851652578151
    vertex 0.12000000000000015 0.2300000000000004 0.0773205080756889
  endloop
endfacet
facet normal -1.0 0.0 0.0
  outer loop
    vertex 0.12000000000000015 0.19931851652578206 0.06517638090205044
    vertex 0.12000000000000015 0.2300000000000004 0.0773205080756889
    vertex 0.12000000000000015 0.20000000000000073 0.05999999999999999
  endloop
endfacet
facet normal -1.0 0.0 0.0
  outer loop
    vertex 0.12000000000000015 0.20000000000000073 0.05999999999999999
    vertex 0.12000000000000015 0.2300000000000004 0.0773205080756889
    vertex 0.12000000000000015 0.22585786437626912 0.07414213562373105
  endloop
endfacet
facet normal -1.0 0.0 0.0
  outer loop
    vertex 0.12000000000000015 0.20000000000000073 0.05999999999999999
    vertex 0.12000000000000015 0.22585786437626912 0.07414213562373105
    vertex 0.12000000000000015 0.22267949192431108 0.07000000000000008
  endloop
endfacet
facet normal -1.0 0.0 0.0
  outer loop
    vertex 0.12000000000000015 0.20000000000000073 0.05999999999999999
    vertex 0.12000000000000015 0.22267949192431108 0.07000000000000008
    vertex 0.12000000000000015 0.22068148347421843 0.06517638090205045
  endloop
endfacet
facet normal -1.0 0.0 0.0
  outer loop
    vertex 0.12000000000000015 0.20000000000000073 0.05999999999999999
    vertex 0.12000000000000015 0.22068148347421843 0.06517638090205045
    vertex 0.12000000000000015 0.21999999999999978 0.05999999999999999
  endloop
endfacet
facet normal -1.0 0.0 0.0
  outer loop
    vertex 0.12000000000000015 0.2348236190979496 0.07931851652578151
    vertex 0.12000000000000015 0.289647238195899 0.09863703305156271
    vertex 0.12000000000000015 0.2400000000000003 0.08000000000000014
  endloop
endfacet
facet normal -1.0 0.0 0.0
  outer loop
    vertex 0.12000000000000015 0.2400000000000003 0.08000000000000014
    vertex 0.12000000000000015 0.289647238195899 0.09863703305156271
    vertex 0.12000000000000015 0.27999999999999986 0.09464101615137753
  endloop
endfacet
facet normal -1.0 0.0 0.0
  outer loop
    vertex 0.12000000000000015 0.2400000000000003 0.08000000000000014
    vertex 0.12000000000000015 0.27999999999999986 0.09464101615137753
    vertex 0.12000000000000015 0.271715728752538 0.08828427124746188
  endloop
endfacet
facet normal -1.0 0.0 0.0
  outer loop
    vertex 0.12000000000000015 0.2400000000000003 0.08000000000000014
    vertex 0.12000000000000015 0.271715728752538 0.08828427124746188
    vertex 0.12000000000000015 0.26535898384862266 0.07999999999999999
  endloop
endfacet
facet normal -1.0 0.0 0.0
  outer loop
    vertex 0.12000000000000015 0.289647238195899 0.09863703305156271
    vertex 0.12000000000000015 0.36000000000000043 0.11999999999999998
    vertex 0.12000000000000015 0.3000000000000004 0.09999999999999998
  endloop
endfacet
facet normal -1.0 0.0 0.0
  outer loop
    vertex 0.12000000000000015 0.3000000000000004 0.09999999999999998
    vertex 0.12000000000000015 0.36000000000000043 0.11999999999999998
    vertex 0.12000000000000015 0.310352761804101 0.09863703305156271
  endloop
endfacet
facet normal -1.0 0.0 0.0
  outer loop
    vertex 0.12000000000000015 0.310352761804101 0.09863703305156271
    vertex 0.12000000000000015 0.36000000000000043 0.11999999999999998
    vertex 0.12000000000000015 0.3200000000000001 0.09464101615137752
  endloop
endfacet
facet normal -1.0 0.0 0.0
  outer loop
    vertex 0.12000000000000015 0.3200000000000001 0.09464101615137752
    vertex 0.12000000000000015 0.36000000000000043 0.11999999999999998
    vertex 0.12000000000000015 0.32828427124746196 0.08828427124746188
  endloop
endfacet
facet normal -1.0 0.0 0.0
  outer loop
    vertex 0.12000000000000015 0.32828427124746196 0.08828427124746188
    vertex 0.12000000000000015 0.36000000000000043 0.11999999999999998
    vertex 0.12000000000000015 0.33464101615137803 0.07999999999999996
  endloop
endfacet
facet normal -1.0 0.0 0.0
  outer loop
    vertex 0.12000000000000015 0.33464101615137803 0.07999999999999996
    vertex 0.12000000000000015 0.36000000000000043 0.11999999999999998
    vertex 0.12000000000000015 0.3386370330515626 0.0703527618041008
  endloop
endfacet
facet normal -1.0 0.0 0.0
  outer loop
    vertex 0.12000000000000015 0.3386370330515626 0.0703527618041008
    vertex 0.12000000000000015 0.36000000000000043 0.11999999999999998
    vertex 0.12000000000000015 0.3399999999999999 0.059999999999999984
  endloop
endfacet
facet normal -1.0 0.0 0.0
  outer loop
    vertex 0.12000000000000015 0.12000000000000015 0.0
    vertex 0.12000000000000015 0.17482361909795024 0.04068148347421849
    vertex 0.12000000000000015 0.36000000000000043 0.0
  endloop
endfacet
facet normal -1.0 0.0 0.0
  outer loop
    vertex 0.12000000000000015 0.17482361909795024 0.04068148347421849
    vertex 0.12000000000000015 0.12000000000000015 0.0
    vertex 0.12000000000000015 0.17000000000000032 0.04267949192431109
  endloop
endfacet
facet normal -1.0 0.0 0.0
  outer loop
    vertex 0.12000000000000015 0.17000000000000032 0.04267949192431109
    vertex 0.12000000000000015 0.12000000000000015 0.0
    vertex 0.12000000000000015 0.16585786437626904 0.04585786437626894
  endloop
endfacet
facet normal -1.0 0.0 0.0
  outer loop
    vertex 0.12000000000000015 0.16585786437626904 0.04585786437626894
    vertex 0.12000000000000015 0.12000000000000015 0.0
    vertex 0.12000000000000015 0.16267949192431172 0.04999999999999992
  endloop
endfacet
facet normal -1.0 0.0 0.0
  outer loop
    vertex 0.12000000000000015 0.16267949192431172 0.04999999999999992
    vertex 0.12000000000000015 0.12000000000000015 0.0
    vertex 0.12000000000000015 0.1606814834742191 0.054823619097949534
  endloop
endfacet
facet normal -1.0 0.0 0.0
  outer loop
    vertex 0.12000000000000015 0.1606814834742191 0.054823619097949534
    vertex 0.12000000000000015 0.12000000000000015 0.0
    vertex 0.12000000000000015 0.16000000000000042 0.05999999999999999
  endloop
endfacet
facet normal -1.0 0.0 0.0
  outer loop
    vertex 0.12000000000000015 0.36000000000000043 0.0
    vertex 0.12000000000000015 0.17482361909795024 0.04068148347421849
    vertex 0.12000000000000015 0.18000000000000022 0.03999999999999985
  endloop
endfacet
facet normal -1.0 0.0 0.0
  outer loop
    vertex 0.12000000000000015 0.36000000000000043 0.0
    vertex 0.12000000000000015 0.18000000000000022 0.03999999999999985
    vertex 0.12000000000000015 0.1851763809020509 0.04068148347421848
  endloop
endfacet
facet normal -1.0 0.0 0.0
  outer loop
    vertex 0.12000000000000015 0.36000000000000043 0.0
    vertex 0.12000000000000015 0.1851763809020509 0.04068148347421848
    vertex 0.12000000000000015 0.1900000000000001 0.04267949192431109
  endloop
endfacet
facet normal -1.0 0.0 0.0
  outer loop
    vertex 0.12000000000000015 0.36000000000000043 0.0
    vertex 0.12000000000000015 0.1900000000000001 0.04267949192431109
    vertex 0.12000000000000015 0.1941421356237314 0.04585786437626894
  endloop
endfacet
facet normal -1.0 0.0 0.0
  outer loop
    vertex 0.12000000000000015 0.36000000000000043 0.0
    vertex 0.12000000000000015 0.1941421356237314 0.04585786437626894
    vertex 0.12000000000000015 0.289647238195899 0.021362966948437274
  endloop
endfacet
facet normal -1.0 0.0 0.0
  outer loop
    vertex 0.12000000000000015 0.289647238195899 0.021362966948437274
    vertex 0.12000000000000015 0.1941421356237314 0.04585786437626894
    vertex 0.12000000000000015 0.19732050807568943 0.04999999999999991
  endloop
endfacet
facet normal -1.0 0.0 0.0
  outer loop
    vertex 0.12000000000000015 0.289647238195899 0.021362966948437274
    vertex 0.12000000000000015 0.19732050807568943 0.04999999999999991
    vertex 0.12000000000000015 0.2348236190979496 0.04068148347421849
  endloop
endfacet
facet normal -1.0 0.0 0.0
  outer loop
    vertex 0.12000000000000015 0.2348236190979496 0.04068148347421849
    vertex 0.12000000000000015 0.19732050807568943 0.04999999999999991
    vertex 0.12000000000000015 0.19931851652578206 0.054823619097949534
  endloop
endfacet
facet normal -1.0 0.0 0.0
  outer loop
    vertex 0.12000000000000015 0.2348236190979496 0.04068148347421849
    vertex 0.12000000000000015 0.19931851652578206 0.054823619097949534
    vertex 0.12000000000000015 0.22999999999999968 0.04267949192431109
  endloop
endfacet
facet normal -1.0 0.0 0.0
  outer loop
    vertex 0.12000000000000015 0.22999999999999968 0.04267949192431109
    vertex 0.12000000000000015 0.19931851652578206 0.054823619097949534
    vertex 0.12000000000000015 0.20000000000000073 0.05999999999999999
  endloop
endfacet
facet normal -1.0 0.0 0.0
  outer loop
    vertex 0.12000000000000015 0.22999999999999968 0.04267949192431109
    vertex 0.12000000000000015 0.20000000000000073 0.05999999999999999
    vertex 0.12000000000000015 0.22585786437626912 0.04585786437626894
  endloop
endfacet
facet normal -1.0 0.0 0.0
  outer loop
    vertex 0.12000000000000015 0.22585786437626912 0.04585786437626894
    vertex 0.12000000000000015 0.20000000000000073 0.05999999999999999
    vertex 0.12000000000000015 0.22267949192431108 0.04999999999999992
  endloop
endfacet
facet normal -1.0 0.0 0.0
  outer loop
    vertex 0.12000000000000015 0.22267949192431108 0.04999999999999992
    vertex 0.12000000000000015 0.20000000000000073 0.05999999999999999
    vertex 0.12000000000000015 0.22068148347421843 0.054823619097949534
  endloop
endfacet
facet normal -1.0 0.0 0.0
  outer loop
    vertex 0.12000000000000015 0.22068148347421843 0.054823619097949534
    vertex 0.12000000000000015 0.20000000000000073 0.05999999999999999
    vertex 0.12000000000000015 0.21999999999999978 0.05999999999999999
  endloop
endfacet
facet normal -1.0 0.0 0.0
  outer loop
    vertex 0.12000000000000015 0.289647238195899 0.021362966948437274
    vertex 0.12000000000000015 0.2348236190979496 0.04068148347421849
    vertex 0.12000000000000015 0.2400000000000003 0.03999999999999985
  endloop
endfacet
facet normal -1.0 0.0 0.0
  outer loop
    vertex 0.12000000000000015 0.289647238195899 0.021362966948437274
    vertex 0.12000000000000015 0.2400000000000003 0.03999999999999985
    vertex 0.12000000000000015 0.27999999999999986 0.025358983848622466
  endloop
endfacet
facet normal -1.0 0.0 0.0
  outer loop
    vertex 0.12000000000000015 0.27999999999999986 0.025358983848622466
    vertex 0.12000000000000015 0.2400000000000003 0.03999999999999985
    vertex 0.12000000000000015 0.271715728752538 0.03171572875253811
  endloop
endfacet
facet normal -1.0 0.0 0.0
  outer loop
    vertex 0.12000000000000015 0.271715728752538 0.03171572875253811
    vertex 0.12000000000000015 0.2400000000000003 0.03999999999999985
    vertex 0.12000000000000015 0.26535898384862266 0.04000000000000001
  endloop
endfacet
facet normal -1.0 0.0 0.0
  outer loop
    vertex 0.12000000000000015 0.36000000000000043 0.0
    vertex 0.12000000000000015 0.289647238195899 0.021362966948437274
    vertex 0.12000000000000015 0.3000000000000004 0.020000000000000004
  endloop
endfacet
facet normal -1.0 0.0 0.0
  outer loop
    vertex 0.12000000000000015 0.36000000000000043 0.0
    vertex 0.12000000000000015 0.3000000000000004 0.020000000000000004
    vertex 0.12000000000000015 0.310352761804101 0.021362966948437267
  endloop
endfacet
facet normal -1.0 0.0 0.0
  outer loop
    vertex 0.12000000000000015 0.36000000000000043 0.0
    vertex 0.12000000000000015 0.310352761804101 0.021362966948437267
    vertex 0.12000000000000015 0.3200000000000001 0.025358983848622448
  endloop
endfacet
facet normal -1.0 0.0 0.0
  outer loop
    vertex 0.12000000000000015 0.36000000000000043 0.0
    vertex 0.12000000000000015 0.3200000000000001 0.025358983848622448
    vertex 0.12000000000000015 0.32828427124746196 0.031715728752538086
  endloop
endfacet
facet normal -1.0 0.0 0.0
  outer loop
    vertex 0.12000000000000015 0.36000000000000043 0.0
    vertex 0.12000000000000015 0.32828427124746196 0.031715728752538086
    vertex 0.12000000000000015 0.33464101615137803 0.03999999999999999
  endloop
endfacet
facet normal -1.0 0.0 0.0
  outer loop
    vertex 0.12000000000000015 0.36000000000000043 0.0
    vertex 0.12000000000000015 0.33464101615137803 0.03999999999999999
    vertex 0.12000000000000015 0.3386370330515626 0.04964723819589914
  endloop
endfacet
facet normal -1.0 0.0 0.0
  outer loop
    vertex 0.12000000000000015 0.36000000000000043 0.0
    vertex 0.12000000000000015 0.3386370330515626 0.04964723819589914
    vertex 0.12000000000000015 0.3399999999999999 0.059999999999999984
  endloop
endfacet
facet normal -1.0 0.0 0.0
  outer loop
    vertex 0.12000000000000015 0.36000000000000043 0.0
    vertex 0.12000000000000015 0.3399999999999999 0.059999999999999984
    vertex 0.12000000000000015 0.36000000000000043 0.11999999999999998
  endloop
endfacet
facet normal 0.0 0.0 -1.0
  outer loop
    vertex 0.4800000000000006 0.36000000000000043 0.0
    vertex 0.36000000000000043 0.12000000000000015 0.0
    vertex 0.36000000000000043 0.36000000000000043 0.0
  endloop
endfacet
facet normal 0.0 0.0 -1.0
  outer loop
    vertex 0.36000000000000043 0.12000000000000015 0.0
    vertex 0.4800000000000006 0.36000000000000043 0.0
    vertex 0.4800000000000006 0.12000000000000015 0.0
  endloop
endfacet
facet normal 0.0 -1.0 0.0
  outer loop
    vertex 0.12000000000000015 0.36000000000000043 0.11999999999999998
    vertex 0.0 0.36000000000000043 0.0
    vertex 0.12000000000000015 0.36000000000000043 0.0
  endloop
endfacet
facet normal 0.0 -1.0 0.0
  outer loop
    vertex 0.0 0.36000000000000043 0.0
    vertex 0.12000000000000015 0.36000000000000043 0.11999999999999998
    vertex 0.0 0.36000000000000043 0.11999999999999997
  endloop
endfacet
facet normal 0.0 -1.0 0.0
  outer loop
    vertex 0.36000000000000043 0.36000000000000043 0.11999999999999997
    vertex 0.12000000000000015 0.36000000000000043 0.0
    vertex 0.36000000000000043 0.36000000000000043 0.0
  endloop
endfacet
facet normal 0.0 -1.0 0.0
  outer loop
    vertex 0.12000000000000015 0.36000000000000043 0.0
    vertex 0.36000000000000043 0.36000000000000043 0.11999999999999997
    vertex 0.12000000000000015 0.36000000000000043 0.11999999999999998
  endloop
endfacet
facet normal 0.0 -1.0 0.0
  outer loop
    vertex 0.4800000000000006 0.12000000000000015 0.11999999999999997
    vertex 0.36000000000000043 0.12000000000000015 0.0
    vertex 0.4800000000000006 0.12000000000000015 0.0
  endloop
endfacet
facet normal 0.0 -1.0 0.0
  outer loop
    vertex 0.36000000000000043 0.12000000000000015 0.0
    vertex 0.4800000000000006 0.12000000000000015 0.11999999999999997
    vertex 0.36000000000000043 0.12000000000000015 0.11999999999999997
  endloop
endfacet
facet normal -1.0 0.0 0.0
  outer loop
    vertex 0.12000000000000015 0.12000000000000015 0.11999999999999998
    vertex 0.12000000000000015 0.0 0.0
    vertex 0.12000000000000015 0.0 0.11999999999999998
  endloop
endfacet
facet normal -1.0 0.0 0.0
  outer loop
    vertex 0.12000000000000015 0.0 0.0
    vertex 0.12000000000000015 0.12000000000000015 0.11999999999999998
    vertex 0.12000000000000015 0.12000000000000015 0.0
  endloop
endfacet
facet normal 0.0 0.0 -1.0
  outer loop
    vertex 0.12000000000000015 0.36000000000000043 0.0
    vertex 0.0 0.12000000000000015 0.0
    vertex 0.0 0.36000000000000043 0.0
  endloop
endfacet
facet normal 0.0 0.0 -1.0
  outer loop
    vertex 0.0 0.12000000000000015 0.0
    vertex 0.12000000000000015 0.36000000000000043 0.0
    vertex 0.12000000000000015 0.12000000000000015 0.0
  endloop
endfacet
endsolid Vertical Support Topper
